<?xml version="1.0" encoding="UTF-8" standalone="no"?>
<svg width="85px" height="85px" viewBox="0 0 85 85" version="1.1" xmlns="http://www.w3.org/2000/svg" xmlns:xlink="http://www.w3.org/1999/xlink" xmlns:sketch="http://www.bohemiancoding.com/sketch/ns">
    <!-- Generator: Sketch 3.3.3 (12081) - http://www.bohemiancoding.com/sketch -->
    <title>Slice 1</title>
    <desc>Created with Sketch.</desc>
    <defs></defs>
    <g id="Page-1" stroke="none" stroke-width="1" fill="none" fill-rule="evenodd" sketch:type="MSPage">
        <circle id="Oval-1" fill="#3567A2" sketch:type="MSShapeGroup" cx="42.5" cy="42.5" r="42.5"></circle>
        <g id="men-t-shirt" sketch:type="MSLayerGroup" transform="translate(11.000000, 12.000000)">
            <g id="Collar_12_" transform="translate(20.000000, 0.000000)" fill="#1A2D03" sketch:type="MSShapeGroup">
                <path d="M20,2 C18,0 16,0 12,0 C8,0 6,0 4,2 L0,6 L12,18.001 L24,6 L20,2 L20,2 Z" id="Shape"></path>
            </g>
            <g id="Interior_11_" transform="translate(20.000000, 4.000000)" fill="#CCA352" sketch:type="MSShapeGroup">
                <path d="M22,2 C20,0.001 14,0.001 12,0.001 C10,0.001 4,0.001 2,2 L0,6 L12,16.001 L24,6 L22,2 L22,2 Z" id="Shape"></path>
            </g>
            <g id="Collar_13_" transform="translate(20.000000, 2.000000)" fill="#376006" sketch:type="MSShapeGroup">
                <path d="M20,0 C20,0 18,6 12,6 C6,6 4,0 4,0 L0,2.001 C0,2.001 4,10.001 12,10.001 C20,10.001 24,2.001 24,2.001 L20,0 L20,0 Z" id="Shape"></path>
            </g>
            <g id="Shirt_6_" transform="translate(2.000000, 4.000000)" fill="#FFCC66" sketch:type="MSShapeGroup">
                <path d="M48,26 L60,20 C57.847,14.659 54,8.001 52,6 C50,4 46,2 42,0.001 C42,0.001 38,8.001 30,8.001 C22,8.001 18,0.001 18,0.001 C14,2 10,4 8,6 C6,8.001 2.153,14.659 0,20 L12,26 C13.275,23.43 14,24 14,24 C14,24 12,52.001 12,54 C12,56.001 16,58 30,58 C44,58 48,56.001 48,54 C48,52 46,24 46,24 C46,24 46.725,23.43 48,26 L48,26 Z" id="Shape"></path>
            </g>
            <g id="Fringe_3_" transform="translate(0.000000, 24.000000)" fill="#376007" sketch:type="MSShapeGroup">
                <path d="M0,4 C0,5.75 10.25,10 12,10 C12.575,10 13.376,7.258 14,6 L2,0 C1.414,1.452 0,3.626 0,4 L0,4 Z M62,0 L50,6 C50.624,7.258 51.425,10 52,10 C53.75,10 64,5.75 64,4 C64,3.626 62.585,1.452 62,0 L62,0 Z" id="Shape"></path>
            </g>
        </g>
    </g>
</svg>