<?xml version="1.0" encoding="UTF-8" standalone="no"?>
<svg width="66px" height="67px" viewBox="0 0 66 67" version="1.1" xmlns="http://www.w3.org/2000/svg" xmlns:xlink="http://www.w3.org/1999/xlink" xmlns:sketch="http://www.bohemiancoding.com/sketch/ns">
    <!-- Generator: Sketch 3.3.3 (12081) - http://www.bohemiancoding.com/sketch -->
    <title>Slice 1</title>
    <desc>Created with Sketch.</desc>
    <defs></defs>
    <g id="Page-1" stroke="none" stroke-width="1" fill="none" fill-rule="evenodd" sketch:type="MSPage">
        <g id="clothing_on1" sketch:type="MSLayerGroup">
            <g id="Page-1" sketch:type="MSShapeGroup">
                <path d="M65.4980244,34.5399403 C65.4980244,17.1295417 51.0596499,3.015625 33.2490122,3.015625 C15.4383745,3.015625 1,17.1295417 1,34.5399403 C1,51.9503389 15.4383745,66.0642556 33.2490122,66.0642556 C51.0596499,66.0642556 65.4980244,51.9503389 65.4980244,34.5399403 Z" id="Oval-Copy" fill="#31629B"></path>
                <g id="clothing_on" transform="translate(0.000000, 0.015625)">
                    <g id="Page-1">
                        <ellipse id="Oval-1" fill="#4D94E7" cx="32.2490122" cy="31.5243153" rx="32.2490122" ry="31.5243153"></ellipse>
                        <g id="men-t-shirt" transform="translate(8.346803, 8.900983)">
                            <g id="Collar_12_" transform="translate(15.176006, 0.000000)" fill="#1A2D03">
                                <path d="M15.1760057,1.48349719 C13.6584052,0 12.1408046,0 9.10560345,0 C6.0704023,0 4.55280172,0 3.03520115,1.48349719 L0,4.45049157 L9.10560345,13.3522165 L18.2112069,4.45049157 L15.1760057,1.48349719 L15.1760057,1.48349719 Z" id="Shape"></path>
                            </g>
                            <g id="Interior_11_" transform="translate(15.176006, 2.966994)" fill="#CCA352">
                                <path d="M16.6936063,1.48349719 C15.1760057,0.000741748596 10.623204,0.000741748596 9.10560345,0.000741748596 C7.58800287,0.000741748596 3.03520115,0.000741748596 1.51760057,1.48349719 L0,4.45049157 L9.10560345,11.8687193 L18.2112069,4.45049157 L16.6936063,1.48349719 L16.6936063,1.48349719 Z" id="Shape"></path>
                            </g>
                            <g id="Collar_13_" transform="translate(15.176006, 1.483497)" fill="#376006">
                                <path d="M15.1760057,0 C15.1760057,0 13.6584052,4.45049157 9.10560345,4.45049157 C4.55280172,4.45049157 3.03520115,0 3.03520115,0 L0,1.48423894 C0,1.48423894 3.03520115,7.4182277 9.10560345,7.4182277 C15.1760057,7.4182277 18.2112069,1.48423894 18.2112069,1.48423894 L15.1760057,0 L15.1760057,0 Z" id="Shape"></path>
                            </g>
                            <g id="Shirt_6_" transform="translate(1.517601, 2.966994)" fill="#FFCC66">
                                <path d="M36.4224138,19.2854635 L45.5280172,14.8349719 C43.8943202,10.8732927 40.9752155,5.93473051 39.4576149,4.45049157 C37.9400144,2.96699438 34.9048132,1.48349719 31.8696121,0.000741748596 C31.8696121,0.000741748596 28.8344109,5.93473051 22.7640086,5.93473051 C16.6936063,5.93473051 13.6584052,0.000741748596 13.6584052,0.000741748596 C10.623204,1.48349719 7.58800287,2.96699438 6.0704023,4.45049157 C4.55280172,5.93473051 1.63369702,10.8732927 0,14.8349719 L9.10560345,19.2854635 C10.0730738,17.3791696 10.623204,17.8019663 10.623204,17.8019663 C10.623204,17.8019663 9.10560345,38.5716687 9.10560345,40.0544242 C9.10560345,41.5386631 12.1408046,43.0214185 22.7640086,43.0214185 C33.3872126,43.0214185 36.4224138,41.5386631 36.4224138,40.0544242 C36.4224138,38.570927 34.9048132,17.8019663 34.9048132,17.8019663 C34.9048132,17.8019663 35.4549434,17.3791696 36.4224138,19.2854635 L36.4224138,19.2854635 L36.4224138,19.2854635 Z" id="Shape"></path>
                            </g>
                            <g id="Fringe_3_" transform="translate(0.000000, 17.801966)" fill="#376007">
                                <path d="M0,2.96699438 C0,4.26505442 7.77770295,7.41748596 9.10560345,7.41748596 C9.54191361,7.41748596 10.1497126,5.38361131 10.623204,4.45049157 L1.51760057,0 C1.07294361,1.07701896 0,2.68958041 0,2.96699438 L0,2.96699438 L0,2.96699438 Z M47.0456178,0 L37.9400144,4.45049157 C38.4135057,5.38361131 39.0213048,7.41748596 39.4576149,7.41748596 C40.7855154,7.41748596 48.5632184,4.26505442 48.5632184,2.96699438 C48.5632184,2.68958041 47.489516,1.07701896 47.0456178,0 L47.0456178,0 L47.0456178,0 Z" id="Shape"></path>
                            </g>
                        </g>
                    </g>
                </g>
            </g>
        </g>
    </g>
</svg>