<?xml version="1.0" encoding="UTF-8" standalone="no"?>
<svg width="65px" height="66px" viewBox="0 0 65 66" version="1.1" xmlns="http://www.w3.org/2000/svg" xmlns:xlink="http://www.w3.org/1999/xlink" xmlns:sketch="http://www.bohemiancoding.com/sketch/ns">
    <!-- Generator: Sketch 3.3.3 (12081) - http://www.bohemiancoding.com/sketch -->
    <title>Slice 1</title>
    <desc>Created with Sketch.</desc>
    <defs></defs>
    <g id="Page-1" stroke="none" stroke-width="1" fill="none" fill-rule="evenodd" sketch:type="MSPage">
        <g id="food2_on1" sketch:type="MSLayerGroup">
            <g id="Page-1" sketch:type="MSShapeGroup">
                <path d="M33.015873,66 C50.6802186,66 65,51.9039654 65,34.515625 C65,17.1272848 50.6802186,3.03125 33.015873,3.03125 C15.3515274,3.03125 1.03174603,17.1272848 1.03174603,34.515625 C1.03174603,51.9039654 15.3515274,66 33.015873,66 L33.015873,66 L33.015873,66 Z" id="Oval-Copy" fill="#31629B"></path>
                <g id="food2_on">
                    <g id="Page-1">
                        <g id="Group">
                            <path d="M31.984127,62.96875 C49.6484726,62.96875 63.968254,48.8727152 63.968254,31.484375 C63.968254,14.0960348 49.6484726,0 31.984127,0 C14.3197814,0 0,14.0960348 0,31.484375 C0,48.8727152 14.3197814,62.96875 31.984127,62.96875 L31.984127,62.96875 L31.984127,62.96875 Z" id="Oval" fill="#4D94E7"></path>
                            <g transform="translate(25.277778, 10.664062)">
                                <g transform="translate(1.547619, 0.000000)">
                                    <path d="M25.5357143,29.5039063 C23.3174603,29.4023438 21.047619,28.1835938 18.8809524,28.7929688 C17.9007937,29.0976563 12.3809524,29.8085938 9.13095238,29.1992188 C7.27380952,28.84375 5.26190476,29.3515625 3.3015873,29.453125 C2.16666667,29.453125 1.23809524,28.4882813 1.23809524,27.3203125 C1.65079365,20.1601563 0.103174603,13.1523438 0.825396825,6.703125 C0.876984127,6.24609375 0.876984127,5.7890625 0.876984127,5.33203125 C0.876984127,3.25 2.94047619,1.5234375 5.10714286,1.5234375 C11.297619,0.609375 17.5396825,0.609375 23.7301587,1.5234375 C25.9484127,1.5234375 28.0634921,3.19921875 27.9087302,5.5859375 C27.9087302,5.94140625 27.9087302,6.296875 27.9603175,6.65234375 C28.6309524,14.0664062 27.1865079,19.9570312 27.547619,27.3203125 C27.5992063,28.5390625 26.6706349,29.5039063 25.5357143,29.5039063 L25.5357143,29.5039063 L25.5357143,29.5039063 Z" id="Shape" fill="#F0E5D0"></path>
                                    <path d="M12.2261905,26.9140625 C11.1944444,26.9140625 10.3174603,26.8632812 9.6468254,26.7109375 C9.02777778,26.609375 8.40873016,26.5585937 7.73809524,26.5585937 C6.75793651,26.5585937 5.77777778,26.6601562 4.84920635,26.7617188 C4.53968254,26.8125 4.23015873,26.8632812 3.92063492,26.8632812 C4.07539683,23.5625 3.81746032,20.3632812 3.61111111,17.265625 C3.3531746,13.6601562 3.0952381,10.2070312 3.45634921,7.0078125 C3.50793651,6.5 3.55952381,5.9921875 3.50793651,5.33203125 C3.50793651,5.02734375 3.76587302,4.72265625 3.86904762,4.62109375 C4.23015873,4.265625 4.69444444,4.0625 5.15873016,4.0625 L5.36507937,4.0625 L5.57142857,4.01171875 C8.51190476,3.5546875 11.5555556,3.3515625 14.4960317,3.3515625 C17.4365079,3.3515625 20.4801587,3.5546875 23.4206349,4.01171875 L23.6269841,4.0625 L23.8333333,4.0625 C24.3492063,4.0625 24.8134921,4.265625 25.1230159,4.5703125 C25.3809524,4.82421875 25.484127,5.078125 25.4325397,5.43359375 C25.3809524,5.94140625 25.4325397,6.44921875 25.484127,6.85546875 C25.7936508,10.6132812 25.5873016,13.9648437 25.3293651,17.46875 C25.1230159,20.4140625 24.9166667,23.4609375 25.0714286,26.8125 C24.6587302,26.7617188 24.1944444,26.609375 23.7301587,26.5078125 C22.6984127,26.2539062 21.5634921,26 20.3253968,26 C19.6031746,26 18.8809524,26.1015625 18.2103175,26.3046875 C17.6944444,26.5078125 14.9087302,26.9140625 12.2261905,26.9140625 L12.2261905,26.9140625 L12.2261905,26.9140625 Z" id="Shape" fill="#F0E5D0"></path>
                                    <path d="M12.2261905,24.375 C11.0912698,24.375 10.4206349,24.2734375 10.1111111,24.2226563 C9.33730159,24.0703125 8.56349206,24.0195312 7.68650794,24.0195312 C7.27380952,24.0195312 6.86111111,24.0195312 6.4484127,24.0703125 C6.3968254,21.6835938 6.24206349,19.3984375 6.08730159,17.1640625 C5.82936508,13.6601562 5.57142857,10.3085938 5.93253968,7.36328125 C5.98412698,7.109375 5.98412698,6.85546875 5.98412698,6.6015625 C8.76984127,6.1953125 11.6071429,5.9921875 14.3928571,5.9921875 C17.1785714,5.9921875 20.015873,6.1953125 22.8015873,6.6015625 C22.8015873,6.8046875 22.8531746,7.0078125 22.8531746,7.16015625 C23.1626984,10.7148438 22.9563492,13.9648438 22.6984127,17.4179688 C22.5436508,19.4492188 22.3888889,21.5820312 22.3888889,23.8164062 C21.718254,23.7148438 20.9960317,23.6132813 20.2222222,23.6132813 C19.2420635,23.6132813 18.3134921,23.765625 17.3849206,24.0195312 C17.0238095,24.0195312 14.5992063,24.375 12.2261905,24.375 L12.2261905,24.375 L12.2261905,24.375 Z" id="Shape" fill="#EEE5D7"></path>
                                    <path d="M12.2261905,21.8359375 C11.1944444,21.8359375 10.6785714,21.734375 10.5753968,21.734375 C10.0595238,21.6328125 9.54365079,21.5820312 8.97619048,21.53125 C8.92460317,19.9570312 8.76984127,18.4335937 8.66666667,16.9609375 C8.46031746,14.0664062 8.25396825,11.2734375 8.40873016,8.8359375 C10.4206349,8.6328125 12.4325397,8.53125 14.3928571,8.53125 C16.3531746,8.53125 18.3650794,8.6328125 20.3769841,8.8359375 C20.531746,11.6796875 20.3253968,14.3710937 20.1190476,17.2148437 C20.015873,18.4335937 19.9642857,19.703125 19.8611111,21.0234375 C18.7777778,21.0742188 17.7460317,21.2265625 16.765873,21.4804687 C16.3015873,21.5820312 14.1865079,21.8359375 12.2261905,21.8359375 L12.2261905,21.8359375 L12.2261905,21.8359375 Z" id="Shape" fill="#ECE6DE"></path>
                                    <path d="M25.5357143,29.9101562 L25.5357143,29.9101562 C24.6587302,29.859375 23.781746,29.65625 22.9563492,29.453125 C22.0277778,29.25 21.0992063,28.9960938 20.2222222,28.9960938 C19.7579365,28.9960938 19.3452381,29.046875 18.984127,29.1484375 C18.2103175,29.4023438 15.0119048,29.8085938 12.1746032,29.8085938 C10.9365079,29.8085938 9.9047619,29.7070312 9.02777778,29.5546875 C8.61507937,29.453125 8.15079365,29.453125 7.63492063,29.453125 C6.80952381,29.453125 5.98412698,29.5546875 5.10714286,29.65625 C4.53968254,29.7070312 3.92063492,29.8085938 3.3015873,29.859375 L3.3015873,29.859375 C1.90873016,29.859375 0.773809524,28.7421875 0.773809524,27.3203125 C0.98015873,23.96875 0.722222222,20.6679688 0.464285714,17.46875 C0.206349206,13.7109375 -0.0515873016,10.15625 0.30952381,6.65234375 C0.361111111,6.296875 0.361111111,5.83984375 0.361111111,5.33203125 C0.361111111,4.31640625 0.773809524,3.3515625 1.54761905,2.58984375 C2.42460317,1.67578125 3.71428571,1.1171875 5.00396825,1.06640625 C8.09920635,0.609375 11.2460317,0.40625 14.3412698,0.40625 C17.4365079,0.40625 20.5833333,0.66015625 23.6785714,1.06640625 C25.0198413,1.06640625 26.3095238,1.625 27.1865079,2.58984375 C27.9603175,3.40234375 28.3214286,4.46875 28.2698413,5.5859375 C28.2698413,5.890625 28.2698413,6.24609375 28.3214286,6.6015625 C28.6825397,10.6132812 28.4246032,14.21875 28.1666667,17.671875 C27.9603175,20.71875 27.7539683,23.8671875 27.9087302,27.2695312 C28.0119048,28.7929688 26.8769841,29.9101562 25.5357143,29.9101562 L25.5357143,29.9101562 L25.5357143,29.9101562 Z M5.10714286,1.98046875 C4.07539683,1.98046875 2.99206349,2.4375 2.21825397,3.25 C1.59920635,3.859375 1.28968254,4.62109375 1.28968254,5.3828125 C1.28968254,5.94140625 1.28968254,6.3984375 1.23809524,6.8046875 C0.876984127,10.2070312 1.13492063,13.7109375 1.39285714,17.46875 C1.65079365,20.71875 1.44444444,24.0195312 1.28968254,27.3710937 C1.28968254,28.2851562 2.16666667,29.5546875 3.3531746,29.5039062 C3.92063492,29.5039062 4.48809524,29.4023438 5.10714286,29.3515625 C5.98412698,29.25 6.86111111,29.1484375 7.73809524,29.1484375 C8.30555556,29.1484375 8.82142857,29.1992188 9.28571429,29.3007812 C10.0595238,29.453125 11.0912698,29.5039062 12.2777778,29.5039062 C15.1666667,29.5039062 18.2103175,29.046875 18.8293651,28.84375 C19.2936508,28.6914062 19.7579365,28.640625 20.2738095,28.640625 C21.2539683,28.640625 22.234127,28.8945312 23.1626984,29.0976562 C23.9880952,29.3007812 24.7619048,29.5039062 25.5357143,29.5039062 C26.4126984,29.5039062 27.5992063,28.3359375 27.5992063,27.3710937 C27.3928571,23.9179688 27.2380952,20.71875 27.4444444,17.671875 C27.702381,14.21875 27.9087302,10.6640625 27.5992063,6.75390625 C27.547619,6.34765625 27.547619,5.9921875 27.547619,5.5859375 C27.5992063,4.72265625 27.2896825,3.91015625 26.7222222,3.25 C26,2.48828125 24.9166667,1.98046875 23.781746,1.98046875 L23.7301587,1.98046875 C20.6349206,1.5234375 17.5396825,1.3203125 14.4444444,1.3203125 C11.3492063,1.3203125 8.25396825,1.5234375 5.21031746,1.98046875 L5.10714286,1.98046875 L5.10714286,1.98046875 Z" id="Shape" fill="#DDAF86"></path>
                                    <path d="M0.464285714,6.75390625 L0.464285714,5.73828125 C0.464285714,5.5859375 0.412698413,5.43359375 0.412698413,5.23046875 L0.412698413,4.72265625 C0.515873016,4.01171875 0.773809524,3.3515625 1.18650794,2.79296875 C1.59920635,2.234375 2.16666667,1.77734375 2.73412698,1.421875 C3.3531746,1.06640625 4.02380952,0.86328125 4.74603175,0.86328125 L4.69444444,0.86328125 C5.51984127,0.7109375 6.29365079,0.609375 7.11904762,0.5078125 C7.94444444,0.40625 8.71825397,0.3046875 9.54365079,0.25390625 L10.781746,0.15234375 L12.0198413,0.1015625 C12.8452381,0.1015625 13.6190476,0.05078125 14.4444444,0.05078125 C15.2698413,0.05078125 16.0436508,0.1015625 16.8690476,0.15234375 C17.6944444,0.203125 18.468254,0.25390625 19.2936508,0.3046875 C20.1190476,0.40625 20.8928571,0.45703125 21.718254,0.55859375 C22.5436508,0.66015625 23.3174603,0.8125 24.1428571,0.96484375 L24.0912698,0.96484375 C24.8134921,0.96484375 25.484127,1.16796875 26.1031746,1.47265625 C26.7222222,1.77734375 27.2896825,2.234375 27.702381,2.79296875 C28.1150794,3.3515625 28.4246032,4.01171875 28.4761905,4.671875 C28.5277778,5.02734375 28.5277778,5.3828125 28.4761905,5.6875 C28.3730159,6.04296875 28.3730159,6.34765625 28.3730159,6.703125 C28.3214286,6.3984375 27.8055556,6.296875 27.8055556,5.9921875 C27.8055556,5.63671875 27.5992063,5.43359375 27.4960317,5.12890625 C27.3412698,3.65625 26.2063492,2.84375 25.6388889,2.640625 C25.0714286,2.4375 23.6269841,1.98046875 23.6269841,1.98046875 L22.75,1.77734375 L21.5634921,1.67578125 C20.7896825,1.625 19.9642857,1.57421875 19.1904762,1.5234375 L16.8174603,1.421875 C16.0436508,1.37109375 15.218254,1.37109375 14.4444444,1.37109375 L12.0714286,1.37109375 C11.297619,1.37109375 10.4722222,1.421875 9.6984127,1.47265625 C8.92460317,1.5234375 6.13888889,1.87890625 6.13888889,1.87890625 L4.90079365,2.03125 C4.90079365,2.03125 3.86904762,2.234375 3.3531746,2.48828125 C2.78571429,2.7421875 2.11507937,3.65625 1.70238095,4.11328125 C1.28968254,4.5703125 0.928571429,4.265625 0.773809524,4.875 C0.722222222,5.02734375 0.722222222,5.1796875 0.670634921,5.33203125 L0.619047619,5.83984375 C0.567460317,6.09375 0.515873016,6.44921875 0.464285714,6.75390625 L0.464285714,6.75390625 L0.464285714,6.75390625 Z" id="Shape" fill="#A77E5E"></path>
                                    <path d="M6.4484127,10.4609375 C6.29365079,10.6640625 5.82936508,10.5625 5.41666667,10.2070312 C5.00396825,9.8515625 4.74603175,9.4453125 4.90079365,9.2421875 C5.05555556,9.0390625 5.51984127,9.140625 5.93253968,9.49609375 C6.3968254,9.8515625 6.6031746,10.2578125 6.4484127,10.4609375 L6.4484127,10.4609375 L6.4484127,10.4609375 Z" id="Shape" fill="#DCD2C2"></path>
                                    <ellipse id="Oval" fill="#DCD2C2" cx="14.031746" cy="3.859375" rx="0.98015873" ry="0.45703125"></ellipse>
                                    <path d="M10.1626984,16.8085938 C10.265873,17.0625 9.95634921,17.4179688 9.44047619,17.6210938 C8.92460317,17.8242188 8.46031746,17.8242188 8.35714286,17.5703125 C8.25396825,17.3164063 8.56349206,16.9609375 9.07936508,16.7578125 C9.5952381,16.6054688 10.0595238,16.6054688 10.1626984,16.8085938 L10.1626984,16.8085938 L10.1626984,16.8085938 Z" id="Shape" fill="#DCD2C2"></path>
                                    <ellipse id="Oval" fill="#DCD2C2" cx="19.8611111" cy="9.8515625" rx="0.98015873" ry="0.45703125"></ellipse>
                                    <path d="M18.4166667,16.7578125 C18.5198413,17.0117187 18.2103175,17.3671875 17.6944444,17.5703125 C17.1785714,17.7734375 16.7142857,17.7734375 16.6111111,17.5195312 C16.5079365,17.265625 16.8174603,16.9101562 17.3333333,16.7070312 C17.8492063,16.5039062 18.3134921,16.5039062 18.4166667,16.7578125 L18.4166667,16.7578125 L18.4166667,16.7578125 Z" id="Shape" fill="#DCD2C2"></path>
                                    <path d="M11.9166667,12.6445312 C11.8134921,12.8476562 11.3492063,12.8476562 10.8333333,12.59375 C10.3174603,12.3398438 10.0595238,11.984375 10.1626984,11.7304688 C10.265873,11.5273437 10.7301587,11.5273437 11.2460317,11.78125 C11.7619048,12.0351562 12.0714286,12.390625 11.9166667,12.6445312 L11.9166667,12.6445312 L11.9166667,12.6445312 Z" id="Shape" fill="#DCD2C2"></path>
                                    <path d="M16.1984127,20.0078125 C16.0952381,20.2109375 15.6309524,20.2109375 15.1150794,19.9570312 C14.6507937,19.703125 14.3412698,19.3476562 14.4444444,19.09375 C14.547619,18.890625 15.0119048,18.890625 15.5277778,19.1445312 C15.9920635,19.3984375 16.3015873,19.8046875 16.1984127,20.0078125 L16.1984127,20.0078125 L16.1984127,20.0078125 Z" id="Shape" fill="#DCD2C2"></path>
                                    <ellipse id="Oval" fill="#DCD2C2" cx="24.0396825" cy="14.1679688" rx="0.98015873" ry="0.45703125"></ellipse>
                                    <ellipse id="Oval" fill="#DCD2C2" cx="7.32539683" cy="5.5859375" rx="0.98015873" ry="0.45703125"></ellipse>
                                    <path d="M10.9880952,7.6171875 C11.2460317,7.71875 11.297619,8.17578125 11.0912698,8.734375 C10.9365079,9.2421875 10.5753968,9.59765625 10.3690476,9.546875 C10.1626984,9.49609375 10.0595238,8.98828125 10.265873,8.4296875 C10.4206349,7.921875 10.781746,7.56640625 10.9880952,7.6171875 L10.9880952,7.6171875 L10.9880952,7.6171875 Z" id="Shape" fill="#DCD2C2"></path>
                                    <ellipse id="Oval" fill="#DCD2C2" cx="22.3888889" cy="4.265625" rx="0.98015873" ry="0.45703125"></ellipse>
                                    <path d="M23.6269841,5.9921875 C23.8333333,5.890625 24.2460317,6.14453125 24.5039683,6.65234375 C24.7619048,7.16015625 24.8134921,7.6171875 24.5555556,7.76953125 C24.3492063,7.87109375 23.9365079,7.6171875 23.6785714,7.109375 C23.4206349,6.6015625 23.4206349,6.09375 23.6269841,5.9921875 L23.6269841,5.9921875 L23.6269841,5.9921875 Z" id="Shape" fill="#DCD2C2"></path>
                                    <path d="M16.4047619,6.3984375 C16.6111111,6.296875 17.0238095,6.55078125 17.281746,7.05859375 C17.5396825,7.56640625 17.5912698,8.0234375 17.3333333,8.17578125 C17.1269841,8.27734375 16.7142857,8.0234375 16.4563492,7.515625 C16.1984127,7.0078125 16.1984127,6.5 16.4047619,6.3984375 L16.4047619,6.3984375 L16.4047619,6.3984375 Z" id="Shape" fill="#DCD2C2"></path>
                                    <path d="M19.8095238,12.6953125 C19.9642857,12.8984375 19.7063492,13.3554688 19.2936508,13.6601562 C18.8809524,13.9648438 18.3650794,14.0664062 18.2619048,13.8632812 C18.1071429,13.6601562 18.3650794,13.203125 18.7777778,12.8984375 C19.1904762,12.59375 19.6547619,12.4921875 19.8095238,12.6953125 L19.8095238,12.6953125 L19.8095238,12.6953125 Z" id="Shape" fill="#DCD2C2"></path>
                                    <ellipse id="Oval" fill="#DCD2C2" cx="24.0396825" cy="26.609375" rx="0.98015873" ry="0.45703125"></ellipse>
                                    <path d="M7.17063492,19.8554688 C7.37698413,20.0078125 7.22222222,20.515625 6.86111111,20.921875 C6.5,21.328125 6.08730159,21.53125 5.88095238,21.3789063 C5.67460317,21.2265625 5.82936508,20.71875 6.19047619,20.3125 C6.5515873,19.90625 6.96428571,19.703125 7.17063492,19.8554688 L7.17063492,19.8554688 L7.17063492,19.8554688 Z" id="Shape" fill="#DCD2C2"></path>
                                    <ellipse id="Oval" fill="#DCD2C2" cx="14.031746" cy="14.5742188" rx="0.98015873" ry="0.45703125"></ellipse>
                                    <ellipse id="Oval" fill="#DCD2C2" cx="4.02380952" cy="17.1640625" rx="0.98015873" ry="0.45703125"></ellipse>
                                    <ellipse id="Oval" fill="#DCD2C2" cx="4.43650794" cy="26.609375" rx="0.98015873" ry="0.45703125"></ellipse>
                                    <ellipse id="Oval" fill="#DCD2C2" cx="7.73809524" cy="24.4765625" rx="0.98015873" ry="0.45703125"></ellipse>
                                    <ellipse id="Oval" fill="#DCD2C2" cx="11.0912698" cy="20.6171875" rx="0.98015873" ry="0.45703125"></ellipse>
                                    <path d="M7.32539683,14.8789062 C7.22222222,15.0820312 6.70634921,15.0820312 6.24206349,14.7773438 C5.77777778,14.5234375 5.46825397,14.1171875 5.62301587,13.8632812 C5.77777778,13.609375 6.24206349,13.6601562 6.70634921,13.9648438 C7.17063492,14.2695312 7.42857143,14.625 7.32539683,14.8789062 L7.32539683,14.8789062 L7.32539683,14.8789062 Z" id="Shape" fill="#DCD2C2"></path>
                                    <path d="M14.0833333,24.78125 C13.9801587,24.984375 13.4642857,24.984375 13,24.6796875 C12.5357143,24.4257812 12.2261905,24.0195312 12.3809524,23.765625 C12.5357143,23.5117187 13,23.5625 13.4642857,23.8671875 C13.9285714,24.1210938 14.1865079,24.5273437 14.0833333,24.78125 L14.0833333,24.78125 L14.0833333,24.78125 Z" id="Shape" fill="#DCD2C2"></path>
                                    <ellipse id="Oval" fill="#DCD2C2" cx="13.6190476" cy="26.609375" rx="0.98015873" ry="0.45703125"></ellipse>
                                    <ellipse id="Oval" fill="#DCD2C2" transform="translate(17.750344, 24.070205) rotate(91.865141) translate(-17.750344, -24.070205) " cx="17.7503442" cy="24.0702047" rx="1.03177679" ry="0.457044876"></ellipse>
                                    <ellipse id="Oval" fill="#DCD2C2" cx="15.2698413" cy="11.171875" rx="0.98015873" ry="0.45703125"></ellipse>
                                    <ellipse id="Oval" fill="#DCD2C2" cx="25.6904762" cy="11.578125" rx="0.98015873" ry="0.45703125"></ellipse>
                                    <ellipse id="Oval" fill="#DCD2C2" cx="25.2777778" cy="18.890625" rx="0.98015873" ry="0.45703125"></ellipse>
                                    <path d="M23.1626984,21.4804687 C23.4206349,21.53125 23.4722222,22.0390625 23.3174603,22.546875 C23.1626984,23.0546875 22.8531746,23.4609375 22.5952381,23.359375 C22.3373016,23.2578125 22.2857143,22.8515625 22.4404762,22.34375 C22.5952381,21.7851562 22.9047619,21.4296875 23.1626984,21.4804687 L23.1626984,21.4804687 L23.1626984,21.4804687 Z" id="Shape" fill="#DCD2C2"></path>
                                    <path d="M22.9563492,16.0976563 C23.2142857,16.1484375 23.265873,16.65625 23.1111111,17.1640625 C22.9563492,17.671875 22.6468254,18.078125 22.3888889,17.9765625 C22.1309524,17.9257812 22.0793651,17.4179688 22.234127,16.9101562 C22.3888889,16.3515625 22.75,15.9960938 22.9563492,16.0976563 L22.9563492,16.0976563 L22.9563492,16.0976563 Z" id="Shape" fill="#DCD2C2"></path>
                                </g>
                                <g id="Shape">
                                    <path d="M30.0753968,5.73828125 C29.6626984,5.43359375 29.1984127,5.23046875 28.734127,5.12890625 L7.22222222,0.3046875 C6.70634921,0.203125 6.19047619,0.40625 5.88095238,0.8125 L5.88095238,0.8125 C5.26190476,1.67578125 4.84920635,2.640625 4.64285714,3.70703125 L1.70238095,19.5 C1.54761905,20.2109375 1.39285714,20.8710938 1.13492063,21.53125 L0.103174603,24.2226562 C-0.0515873016,24.578125 0.206349206,24.984375 0.567460317,25.0859375 L24.3492063,30.2148438 C24.7103175,30.3164062 25.1230159,30.0625 25.1746032,29.65625 L29.4047619,9.8515625 C29.5079365,9.2421875 29.7142857,8.68359375 29.8690476,8.07421875 L30.3849206,6.6015625 C30.4880952,6.296875 30.3333333,5.94140625 30.0753968,5.73828125 L30.0753968,5.73828125 L30.0753968,5.73828125 Z M11.7619048,18.7382812 C9.95634921,19.3476562 8.20238095,18.9921875 7.84126984,17.9765625 C7.48015873,16.9609375 8.71825397,15.6914062 10.5238095,15.0820313 C12.3293651,14.4726563 14.0833333,14.828125 14.4444444,15.84375 C14.8055556,16.859375 13.6190476,18.1289063 11.7619048,18.7382812 L11.7619048,18.7382812 L11.7619048,18.7382812 Z M14.4960317,7.8203125 C14.2896825,8.328125 13.3095238,8.4296875 12.2777778,8.07421875 C11.2460317,7.66796875 10.6269841,6.90625 10.8333333,6.3984375 C11.0396825,5.890625 12.0198413,5.7890625 13.0515873,6.14453125 C14.031746,6.55078125 14.702381,7.3125 14.4960317,7.8203125 L14.4960317,7.8203125 L14.4960317,7.8203125 Z M21.047619,21.6328125 C20.531746,21.734375 20.1190476,21.5820313 20.0674603,21.2773438 C20.015873,20.9726562 20.3769841,20.6679688 20.8412698,20.6171875 C21.3571429,20.515625 21.7698413,20.6679688 21.8214286,20.9726562 C21.9246032,21.2265625 21.5634921,21.53125 21.047619,21.6328125 L21.047619,21.6328125 L21.047619,21.6328125 Z M24.6071429,12.0351562 C24.297619,13.3046875 23.4206349,14.21875 22.75,14.0664062 C22.0277778,13.9140625 21.718254,12.6953125 22.0277778,11.4257812 C22.3373016,10.15625 23.2142857,9.2421875 23.8849206,9.39453125 C24.6071429,9.59765625 24.968254,10.765625 24.6071429,12.0351562 L24.6071429,12.0351562 L24.6071429,12.0351562 Z" fill="#F4C63B"></path>
                                    <path d="M10.5753968,15.0820312 C12.3809524,14.4726562 14.1349206,14.828125 14.4960317,15.84375 L14.4960317,15.9453125 C14.547619,15.7421875 14.547619,15.5390625 14.4960317,15.3359375 C14.1349206,14.3203125 12.4325397,14.015625 10.5753968,14.5742187 C8.82142857,15.1328125 7.63492063,16.3515625 7.89285714,17.3671875 C8.04761905,16.5039062 9.07936508,15.5390625 10.5753968,15.0820312 L10.5753968,15.0820312 L10.5753968,15.0820312 Z" opacity="0.1" fill="#313131"></path>
                                    <path d="M12.5357143,5.63671875 C11.5039683,5.23046875 10.5238095,5.33203125 10.3174603,5.890625 C10.1626984,6.24609375 10.4722222,6.75390625 10.9880952,7.16015625 C10.781746,6.90625 10.7301587,6.65234375 10.8333333,6.3984375 C11.0396825,5.890625 12.0198413,5.7890625 13.0515873,6.14453125 C13.3611111,6.24609375 13.6190476,6.3984375 13.8253968,6.55078125 C13.5674603,6.1953125 13.1031746,5.890625 12.5357143,5.63671875 L12.5357143,5.63671875 L12.5357143,5.63671875 Z" opacity="0.1" fill="#313131"></path>
                                    <path d="M23.3690476,8.88671875 C22.6468254,8.734375 21.8214286,9.59765625 21.5119048,10.9179687 C21.202381,12.1367187 21.5119048,13.2539062 22.1309524,13.5078125 C21.8730159,13 21.8214286,12.2382812 22.0277778,11.4257812 C22.3373016,10.15625 23.2142857,9.2421875 23.8849206,9.39453125 C23.9365079,9.39453125 23.9365079,9.4453125 23.9880952,9.4453125 C23.8849206,9.19140625 23.6785714,8.98828125 23.3690476,8.88671875 L23.3690476,8.88671875 L23.3690476,8.88671875 Z" opacity="0.1" fill="#313131"></path>
                                    <path d="M20.3253968,20.0585938 C19.8095238,20.1601563 19.5,20.4648438 19.5515873,20.71875 C19.6031746,20.921875 20.015873,21.4296875 20.2738095,21.4804688 L20.2738095,21.4804688 C20.1706349,21.4296875 20.0674603,21.328125 20.0674603,21.2265625 C20.015873,20.921875 20.3769841,20.6171875 20.8412698,20.5664063 C21.2539683,20.515625 21.6150794,20.5664063 21.7698413,20.7695313 L21.7698413,20.7695313 C21.7698413,20.71875 21.4603175,20.4648438 21.4603175,20.4140625 C21.4087302,20.1601563 20.8412698,20.0078125 20.3253968,20.0585938 L20.3253968,20.0585938 L20.3253968,20.0585938 Z" opacity="0.1" fill="#313131"></path>
                                </g>
                                <path d="M11.968254,23.2070312 C11.4007937,22.8007812 11.5555556,21.734375 12.3809524,20.8203125 C13.2063492,19.9570312 14.3412698,19.5507812 14.9087302,20.0078125 C15.4761905,20.4140625 15.3214286,21.4804687 14.4960317,22.3945312 C13.6706349,23.2578125 12.5357143,23.6640625 11.968254,23.2070312 L11.968254,23.2070312 L11.968254,23.2070312 Z" id="Shape" fill="#E3B544"></path>
                                <ellipse id="Oval" fill="#E3B544" transform="translate(9.432774, 7.921337) rotate(-39.957430) translate(-9.432774, -7.921337) " cx="9.43277421" cy="7.92133672" rx="1.39281751" ry="0.660137466"></ellipse>
                                <ellipse id="Oval" fill="#E3B544" cx="18.5714286" cy="11.8320312" rx="1.75396825" ry="1.1171875"></ellipse>
                            </g>
                        </g>
                        <g id="1463604015_food-02" transform="translate(18.505913, 30.231505) rotate(-10.000000) translate(-18.505913, -30.231505) translate(3.029723, 16.774473)">
                            <g id="Group">
                                <g id="Shape">
                                    <path d="M30.6944444,13.6832386 C29.7486773,20.6048769 23.9021164,26.326231 15.5621693,26.326231 C7.22222222,26.326231 0.171957672,20.6448864 0.171957672,13.6832386 C0.171957672,7.96188448 3.31018519,0.640151515 15.1322751,1.28030303 C17.7116402,1.44034091 20.3339947,2.76065341 23.0423281,3.48082386 C27.3412698,4.64109849 31.4252646,8.3219697 30.6944444,13.6832386 L30.6944444,13.6832386 L30.6944444,13.6832386 Z" fill="#DF5F4F"></path>
                                    <g id="Group" transform="translate(0.000000, 1.200284)">
                                        <path d="M16.3789683,1.28030303 C18.9583333,1.44034091 21.5806878,2.76065341 24.2890211,3.48082386 C25.7936508,3.88091856 27.255291,4.60108901 28.5449735,5.60132574 C27.0833333,4.00094697 25.0628307,2.84067235 22.9993386,2.28053977 C20.2910053,1.56036932 17.6686508,0.240056818 15.0892857,0.0800189396 C3.31018519,-0.560132574 0.128968254,6.80160985 0.128968254,12.4829546 C0.128968254,15.9637784 1.89153439,19.1245265 4.68584656,21.4050663 C2.66534392,19.2845644 1.41865079,16.6039299 1.41865079,13.6832386 C1.46164021,7.96188448 4.59986773,0.600142045 16.3789683,1.28030303 L16.3789683,1.28030303 L16.3789683,1.28030303 Z" id="Shape" opacity="0.2" fill="#F9FAFA"></path>
                                        <path d="M27.255291,4.3610322 C28.8458995,6.12144889 29.7916667,8.48200757 29.4047619,11.2826704 C28.4589947,18.2043087 22.6124338,23.9256629 14.2724868,23.9256629 C10.1025132,23.9256629 6.23346559,22.485322 3.43915344,20.2047822 C6.27645504,23.2054924 10.7043651,25.125947 15.5621693,25.125947 C23.9021164,25.125947 29.7486773,19.4045928 30.6944444,12.4829546 C31.1673281,9.00213067 29.619709,6.2014678 27.255291,4.3610322 L27.255291,4.3610322 L27.255291,4.3610322 Z" id="Shape" opacity="0.1" fill="#050606"></path>
                                    </g>
                                    <path d="M4.94378307,6.00142045 C4.59986773,6.32149619 4.98677249,6.96164772 5.41666667,6.76160037 C10.2744709,4.72111743 14.9603175,4.20099432 21.9675926,5.64133522 C27.9001323,6.84161933 18.2705027,2.32054924 12.1230159,2.68063447 C8.76984127,2.88068182 6.36243385,4.60108901 4.94378307,6.00142045 L4.94378307,6.00142045 L4.94378307,6.00142045 Z" opacity="0.5" fill="#F9FAFA"></path>
                                    <path d="M10.489418,3.08072917 C10.489418,3.08072917 12.6818783,3.5608428 14.0145503,5.64133522 C15.3472222,7.72182765 15.2612434,5.28125 15.2612434,5.28125 C15.2612434,5.28125 12.5958995,2.76065341 10.489418,3.08072917 L10.489418,3.08072917 L10.489418,3.08072917 Z" opacity="0.2" fill="#050606"></path>
                                    <path d="M20.3769841,6.12144889 C17.7116402,6.16145832 16.4219577,6.12144889 16.4219577,6.12144889 L16.0780423,6.6015625 C15.8201058,6.52154354 14.702381,6.16145832 14.1435185,6.64157198 C14.1005291,6.68158146 14.1005291,6.68158146 14.0575397,6.72159089 L13.1977513,6.00142045 L9.71560845,6.28148676 C9.71560845,6.28148676 8.1679894,6.68158146 7.56613758,7.48177082 C7.56613758,7.48177082 8.72685187,6.96164772 9.8015873,6.92163824 C10.6613757,6.88162881 12.9398148,6.92163824 13.8425926,6.92163824 C13.3267196,7.5217803 12.9398148,8.52201705 12.9398148,8.52201705 C13.1117725,8.36197918 15.3472222,7.08167611 15.9490741,6.76160037 C15.9490741,6.76160037 16.9378307,7.24171404 17.9265873,7.12168559 C18.8723545,7.0016572 20.9358465,6.48153411 21.9675926,6.52154354 C22.9993386,6.52154354 23.343254,6.56155302 23.9021164,6.76160037 C23.9021164,6.68158146 23.0423281,6.08143941 20.3769841,6.12144889 L20.3769841,6.12144889 L20.3769841,6.12144889 Z" opacity="0.2" fill="#050606"></path>
                                    <path d="M19.3452381,5.96141096 C19.3452381,5.96141096 20.2480159,5.08120265 20.67791,4.72111743 C21.1078043,4.3610322 19.0443122,4.72111743 19.0443122,4.72111743 L16.9808201,5.48129735 L16.2929894,5.92140154 L19.3452381,5.92140154 L19.3452381,5.96141096 L19.3452381,5.96141096 Z" opacity="0.2" fill="#050606"></path>
                                    <path d="M5.93253968,11.8027935 L6.4484127,11.9628315 C8.51190476,12.6029829 10.7043651,12.6830019 12.8108465,12.1628788 L12.8108465,12.1628788 C14.3584656,11.8027935 15.9920635,11.7227746 17.5826719,11.922822 L18.7433862,12.0828599 C20.462963,12.3229167 22.2685185,12.1628788 23.9021164,11.5627368 L24.1170635,11.4827178 C26.4814815,10.642519 26.1805556,7.44176139 23.6871693,6.96164772 L23.6871693,6.96164772 C21.9246032,6.64157198 20.1190476,6.76160037 18.3994709,7.32173295 L18.3994709,7.32173295 C16.4649471,7.96188448 14.401455,7.96188448 12.4669312,7.40175191 L12.3809524,7.36174243 C10.4464286,6.80160985 8.33994711,6.72159089 6.36243385,7.16169507 L6.10449734,7.20170455 C3.69708995,7.88186552 3.52513227,11.0426136 5.93253968,11.8027935 L5.93253968,11.8027935 L5.93253968,11.8027935 Z" opacity="0.5" fill="#F9FAFA"></path>
                                    <path d="M24.9768519,1.7204072 C24.9768519,1.7204072 24.8478836,5.40127839 17.7116402,5.84138257 C21.2797619,4.32102273 20.8068783,1.76041667 20.5489418,0.960227272 C20.5489418,0.920217802 20.4199735,0.920217802 20.462963,1.00023674 C20.7638889,4.52107007 16.0350529,5.36126896 16.0350529,5.36126896 L15.8201058,5.28125 C15.8201058,5.28125 11.9080688,3.5608428 13.369709,0.120028409 L13.2407408,0.120028409 C13.2407408,0.120028409 11.2202381,2.08049243 14.1005291,5.60132574 L14.1435185,5.64133522 L13.2407408,5.6813447 C12.5958995,5.60132574 9.45767194,5.12121213 7.73809524,1.88044507 C7.73809524,1.88044507 7.65211638,1.36032197 9.07076718,0.560132574 C9.07076718,0.560132574 7.17923282,1.36032197 7.26521162,1.88044507 C7.35119048,2.40056818 9.97354496,7.72182765 14.2724868,6.44152463 C14.8313492,6.52154354 15.3902116,6.6015625 15.7771164,6.64157198 C16.3789683,6.72159089 16.9808201,6.72159089 17.5826719,6.68158146 C19.8181217,6.48153411 25.1917989,5.56131631 24.9768519,1.7204072 L24.9768519,1.7204072 L24.9768519,1.7204072 Z" fill="#425838"></path>
                                    <g id="Group" transform="translate(12.466931, 0.000000)" fill="#000000">
                                        <path d="M0.773809524,0.0800189396 C0.687830686,0.360085227 0.558862432,0.640151515 0.515873016,0.920217802 C0.42989418,1.20028409 0.42989418,1.48035038 0.42989418,1.76041667 C0.42989418,2.32054924 0.558862432,2.88068182 0.773809524,3.40080493 C1.03174603,3.92092803 1.37566138,4.3610322 1.84854497,4.7611269 C2.27843916,5.16122161 2.79431217,5.48129735 3.31018519,5.72135418 L3.26719577,5.72135418 C3.86904762,5.60132574 4.51388889,5.40127839 5.07275132,5.16122161 C5.67460317,4.92116477 6.19047619,4.60108901 6.70634921,4.20099432 C7.17923282,3.80089962 7.56613758,3.32078599 7.82407409,2.76065341 C7.86706349,2.640625 7.91005289,2.48058712 7.95304235,2.32054924 C7.99603175,2.16051136 8.03902115,2.04048296 8.03902115,1.88044507 L8.03902115,1.44034091 C8.03902115,1.28030303 7.99603175,1.12026515 7.99603175,1.00023674 C7.99603175,1.16027462 8.03902115,1.28030303 8.03902115,1.44034091 L8.03902115,1.88044507 C8.03902115,2.04048296 7.99603175,2.20052083 7.99603175,2.32054924 C7.95304235,2.48058712 7.91005289,2.60061553 7.86706349,2.76065341 C7.65211638,3.36079546 7.26521162,3.84090909 6.79232806,4.28101326 C6.31944444,4.72111743 5.76058203,5.04119318 5.15873016,5.28125 C4.55687831,5.56131631 3.95502646,5.76136361 3.31018519,5.88139205 L3.26719577,5.88139205 L3.22420635,5.88139205 C2.92328042,5.76136361 2.66534392,5.60132574 2.40740741,5.44128787 C2.1494709,5.28125 1.89153439,5.08120265 1.6765873,4.8811553 C1.24669312,4.4810606 0.859788362,4.00094697 0.601851854,3.4408144 C0.343915344,2.88068182 0.257936508,2.32054924 0.300925926,1.7204072 C0.343915344,1.44034091 0.386904762,1.16027462 0.472883598,0.880208332 C0.515873016,0.600142045 0.64484127,0.360085227 0.773809524,0.0800189396 L0.773809524,0.0800189396 L0.773809524,0.0800189396 Z" id="Shape"></path>
                                    </g>
                                    <g id="Group" transform="translate(7.308201, 0.800190)" fill="#000000">
                                        <path d="M6.27645504,5.48129735 C4.42791005,5.48129735 3.05224868,4.64109849 2.10648148,3.76089015 C0.773809524,2.52059659 0.0859788362,1.00023674 0.0859788362,1.00023674 L0.042989418,0.960227272 L0.64484127,0.160037879 L0.81679894,0.280066288 L0.300925926,1.00023674 C0.558862432,1.56036932 3.13822751,6.68158146 8.38293651,4.92116477 L8.72685187,4.80113636 L8.55489416,5.00118371 C9.02777778,5.16122161 11.6501323,5.48129735 14.0145503,4.68110796 C16.0350529,4.00094697 17.2387566,2.72064394 17.5396825,0.880208332 L17.7546296,0.920217802 C17.2387566,3.80089962 14.7453704,4.84114583 12.7678571,5.20123104 C10.7903439,5.56131631 8.72685187,5.36126896 8.38293651,5.12121213 C7.60912698,5.40127839 6.92129631,5.48129735 6.27645504,5.48129735 L6.27645504,5.48129735 L6.27645504,5.48129735 Z" id="Shape"></path>
                                    </g>
                                    <path d="M14.4444444,6.2014678 C14.4444444,6.2014678 13.7566138,3.84090909 15.4332011,0.480113636 L16.9808201,0.560132574 C16.9808201,0.560132574 15.4761905,2.44057765 16.3789683,5.96141096 C16.3789683,6.00142045 15.5621693,6.80160985 14.4444444,6.2014678 L14.4444444,6.2014678 L14.4444444,6.2014678 Z" fill="#425838"></path>
                                    <g id="Group" transform="translate(14.186508, 0.400095)">
                                        <path d="M1.46164021,0.160037879 L1.24669312,0.120028409 C-0.42989418,3.48082386 0.257936508,5.84138257 0.257936508,5.84138257 C0.64484127,6.04142993 1.03174603,6.08143941 1.33267196,6.04142993 C1.16071429,6.00142045 0.945767194,5.96141096 0.687830686,5.84138257 C0.687830686,5.80137309 -0.171957672,3.48082386 1.46164021,0.160037879 L1.46164021,0.160037879 L1.46164021,0.160037879 Z" id="Shape" fill="#F9FAFA"></path>
                                        <path d="M2.79431217,0.200047349 L1.24669312,0.120028409 C1.24669312,0.120028409 1.24669312,0.120028409 1.24669312,0.160037879 L2.6223545,0.200047349 C2.6223545,0.200047349 0.859788362,2.1205019 1.76256614,5.64133522 C1.76256614,5.64133522 1.41865079,5.96141096 0.902777778,6.04142993 C1.6765873,6.16145832 2.19246032,5.64133522 2.19246032,5.64133522 C1.28968254,2.08049243 2.79431217,0.200047349 2.79431217,0.200047349 L2.79431217,0.200047349 L2.79431217,0.200047349 Z" id="Shape" fill="#050606"></path>
                                    </g>
                                    <path d="M17.0238095,0.520123104 C17.0238095,0.720170455 16.6798942,0.880208332 16.25,0.880208332 C15.8201058,0.880208332 15.4332011,0.720170455 15.4761905,0.520123104 C15.5191799,0.320075757 15.8201058,0.160037879 16.25,0.160037879 C16.6798942,0.160037879 17.0238095,0.320075757 17.0238095,0.520123104 L17.0238095,0.520123104 L17.0238095,0.520123104 Z" fill="#546948"></path>
                                    <path d="M11.2202381,2.52059659 C11.2202381,2.52059659 10.6613757,7.76183713 15.9920635,6.68158146 C16.9378307,6.48153411 15.734127,6.08143941 14.6164021,5.84138257 C13.2407408,5.52130683 11.7361111,5.24124052 11.2202381,2.52059659 L11.2202381,2.52059659 L11.2202381,2.52059659 Z" fill="#3A4D31"></path>
                                </g>
                            </g>
                        </g>
                        <g id="1463603947_food-06" transform="translate(14.960317, 29.960938)">
                            <g id="Group">
                                <g id="Shape">
                                    <path d="M33.6892231,8.80347081 L33.6892231,8.80347081 C34.0028196,10.1728996 33.9132206,11.5814549 33.3756266,12.9117572 L31.7180451,17.0200435 C31.4044486,17.8417008 30.6876566,18.5068519 29.8364662,18.8981173 L29.8364662,18.8981173 C27.6412907,19.8762807 25.2669173,20.4631788 22.8029449,20.5805584 L20.2941729,20.697938 C17.7406015,20.8153176 15.1870301,20.6588115 12.7230576,20.189293 L12.2302631,20.11104 C9.13909776,19.5241419 6.40632835,17.998207 4.47994988,15.8462474 L3.76315789,15.0245901 C2.55357143,13.6942879 1.65758145,12.2074795 1.03038847,10.564165 L1.03038847,10.564165 C0.761591479,9.85988727 0.671992482,9.11648309 0.761591479,8.41220545 L0.761591479,8.33395235 C0.806390975,7.86443389 0.761591479,7.43404203 0.671992482,6.96452357 L0.447994988,6.45587861 C0.223997494,5.9472336 0.268796993,5.3994621 0.582393485,4.92994365 L0.806390975,4.61693135 C0.985588975,4.3430456 1.16478697,4.0300333 1.29918546,3.717021 L1.79197995,2.58235143 C2.28477444,1.52593494 3.44956141,0.821657276 4.74874687,0.821657276 L8.51190476,0.821657276 C9.31829574,0.821657276 10.1246867,0.743404203 10.9310777,0.586898051 L10.9310777,0.586898051 C13.3054511,0.117379611 15.7694236,-0.0391265369 18.1885965,0.195632685 L18.1885965,0.195632685 C21.1005639,0.469518443 23.9677318,1.13466957 26.6109022,2.19108607 L26.6109022,2.19108607 C28.0444862,2.77798412 29.3884712,3.48226178 30.5980576,4.3430456 L30.5980576,4.3430456 C31.0460526,4.65605789 31.5388471,4.96907018 32.0764411,5.24295596 L32.0764411,5.24295596 C32.9724311,5.71247437 33.5548245,6.5732582 33.5548245,7.51229507 L33.5548245,7.51229507 C33.5548245,7.94268698 33.599624,8.3730789 33.6892231,8.80347081 L33.6892231,8.80347081 L33.6892231,8.80347081 Z" fill="#DF5F4F"></path>
                                    <path d="M5.19674185,12.2857326 L5.19674185,12.2074795 C5.24154135,11.7379611 5.19674185,11.3075692 5.10714286,10.8380507 L4.92794486,10.3685323 C4.70394737,9.85988727 4.74874687,9.31211577 5.06234336,8.84259736 L5.28634084,8.52958504 C5.46553883,8.25569926 5.64473686,7.94268698 5.77913535,7.62967471 L6.27192981,6.49500511 C6.76472431,5.43858864 7.92951126,4.73431096 9.22869675,4.73431096 L12.9918546,4.73431096 C13.7982456,4.73431096 14.6046366,4.65605789 15.4110276,4.49955174 C17.785401,4.0300333 20.2493734,3.87352715 22.6685464,4.10828637 C25.5805138,4.38217213 28.4476817,5.04732326 31.0908522,6.10373974 C31.9420426,6.45587861 32.7484336,6.84714398 33.5548245,7.27753584 C33.4652255,6.41675206 32.9276316,5.67334782 32.0764411,5.24295596 L32.0764411,5.24295596 C31.5836466,4.96907018 31.0908522,4.69518443 30.5980576,4.3430456 L30.5980576,4.3430456 C29.3884712,3.48226178 28.0444862,2.73885758 26.6109022,2.19108607 C23.9229323,1.13466957 21.1005639,0.469518443 18.1885965,0.195632685 C15.7694236,-0.0391265369 13.3054511,0.117379611 10.9310777,0.586898051 C10.1246867,0.743404203 9.31829574,0.821657276 8.51190476,0.821657276 L4.74874687,0.821657276 C3.44956141,0.821657276 2.28477444,1.52593494 1.79197995,2.58235143 L1.29918546,3.717021 C1.16478697,4.0300333 0.985588975,4.30391906 0.806390975,4.61693135 L0.582393485,4.92994365 C0.268796993,5.3994621 0.223997494,5.9472336 0.447994988,6.45587861 L0.671992482,6.92539702 C0.806390975,7.35578893 0.806390975,7.82530739 0.761591479,8.2948258 L0.761591479,8.3730789 C0.671992482,9.11648309 0.761591479,9.82076078 1.03038847,10.5250384 C1.65758145,12.1292264 2.55357143,13.6160349 3.76315789,14.9854636 L4.47994988,15.8071209 C5.42073933,16.8635374 6.58552633,17.8025743 7.88471177,18.5068519 C6.85432331,17.2939293 6.04793233,15.9245005 5.51033832,14.4768186 C5.24154135,13.7334144 5.15194236,13.0291368 5.19674185,12.2857326 L5.19674185,12.2857326 L5.19674185,12.2857326 Z" opacity="0.2" fill="#FDFDFD"></path>
                                    <path d="M4.47994988,15.8071209 C6.40632835,17.9590804 9.18389725,19.4850154 12.2302631,20.0719134 L12.7230576,20.1501665 C15.1870301,20.6196849 17.7406015,20.8153176 20.2941729,20.6588115 L22.8029449,20.5414319 C25.2669173,20.4240522 27.6412907,19.8371542 29.8364662,18.8589908 C30.5084587,18.5459785 31.0908522,18.07646 31.4492481,17.489562 L31.4492481,17.489562 L30.6876566,19.9545338 C30.6876566,19.9545338 29.8364662,21.9499872 27.7308897,22.4195056 C25.6253133,22.8890241 18.9949875,25.0801101 9.40789473,22.6933914 C9.40789473,22.6933914 5.42073933,21.5195953 4.25595238,18.7024846 C3.09116541,15.885374 3.31516291,15.0637167 1.74718045,12.0509733 L1.74718045,12.0509733 C2.28477444,13.0682633 2.95676692,14.0855533 3.76315789,14.9854636 L4.47994988,15.8071209 L4.47994988,15.8071209 Z" fill="#E3A795"></path>
                                    <g id="Group" transform="translate(1.343985, 11.737961)">
                                        <path d="M4.21115288,7.00365011 C3.7183584,5.82985401 3.44956141,4.96907018 3.22556391,4.18653945 C3.18076441,4.14741291 3.13596491,4.10828637 3.09116541,4.06915983 L2.37437343,3.24750256 C1.56798245,2.34759221 0.895989977,1.36942879 0.35839599,0.313012295 L0.35839599,0.313012295 C1.92637845,3.32575564 1.70238095,4.18653945 2.86716792,6.96452357 C4.03195489,9.74250768 8.06390975,10.9554303 8.06390975,10.9554303 C11.6030702,11.8162142 14.7390351,12.0900999 17.3822055,12.0118468 C15.0078321,12.0118468 12.3646617,11.6988345 9.40789473,10.9554303 C9.40789473,10.9554303 5.42073933,9.78163423 4.21115288,7.00365011 L4.21115288,7.00365011 L4.21115288,7.00365011 Z" id="Shape" opacity="0.2" fill="#FDFDFD"></path>
                                        <path d="M28.4924812,7.16015625 C28.4476817,7.1992828 28.4028822,7.1992828 28.3132832,7.23840934 L27.9996867,8.21657276 C27.9996867,8.21657276 27.1484962,10.2120261 25.0429198,10.6815446 C23.6989348,10.9554303 20.5629699,11.9335938 16.0382206,12.0509733 C21.3245614,12.168353 24.9533208,10.9945569 26.3869048,10.6815446 C28.4924812,10.2120261 29.3436717,8.21657276 29.3436717,8.21657276 L30.1052631,5.75160092 C29.7468672,6.37762552 29.1644737,6.84714398 28.4924812,7.16015625 L28.4924812,7.16015625 L28.4924812,7.16015625 Z" id="Shape" opacity="0.15" fill="#050606"></path>
                                    </g>
                                    <path d="M24.9533208,12.4031122 C25.2221178,12.4031122 25.4461153,12.2857326 25.5357143,12.1292264 C25.6253133,12.0118468 25.6253133,11.8553407 25.5357143,11.6988345 C25.4461153,11.5423284 25.3117168,11.4249488 25.1325188,11.3466957 C24.9981203,11.3075692 24.8637218,11.2684426 24.7293233,11.2684426 C24.4605263,11.2684426 24.2365288,11.3858222 24.1469298,11.5423284 C24.0573308,11.659708 24.0573308,11.8162142 24.1469298,11.9727203 C24.2365288,12.1292264 24.3709273,12.246606 24.5501253,12.3248591 C24.6845238,12.3639857 24.8189223,12.4031122 24.9533208,12.4031122 L24.9533208,12.4031122 L24.9533208,12.4031122 Z" fill="#F8F9F9"></path>
                                    <path d="M0.447994988,6.45587861 L0.671992482,6.92539702 C0.806390975,7.35578893 0.806390975,7.82530739 0.761591479,8.2948258 L0.761591479,8.3730789 C0.671992482,9.11648309 0.761591479,9.82076078 1.03038847,10.5250384 C1.65758145,12.1292264 2.55357143,13.6160349 3.76315789,14.9854636 L4.47994988,15.8071209 C6.40632835,17.9590804 9.18389725,19.4850154 12.2302631,20.0719134 L12.7230576,20.1501665 C15.1870301,20.6196849 17.7406015,20.8153176 20.2941729,20.6588115 L22.8029449,20.5414319 C25.2669173,20.4240522 27.6412907,19.8371542 29.8364662,18.8589908 C30.7324561,18.4677254 31.4044486,17.8025743 31.7180451,16.980917 L33.3756266,12.8726306 C33.9132206,11.5423284 34.0028196,10.1337731 33.6892231,8.76434427 C33.599624,8.3730789 33.5548245,7.94268698 33.5548245,7.51229507 C33.5548245,6.5732582 32.9724311,5.71247437 32.0764411,5.24295596 L32.0764411,5.24295596 C31.5836466,4.96907018 31.0908522,4.69518443 30.5980576,4.3430456 L30.5980576,4.3430456 C29.3884712,3.48226178 28.0444862,2.73885758 26.6109022,2.19108607 C23.9229323,1.13466957 21.1005639,0.469518443 18.1885965,0.195632685 C15.7694236,-0.0391265369 13.3054511,0.117379611 10.9310777,0.586898051 C10.1246867,0.743404203 9.31829574,0.821657276 8.51190476,0.821657276 L4.74874687,0.821657276 C3.44956141,0.821657276 2.28477444,1.52593494 1.79197995,2.58235143 L1.29918546,3.717021 C1.16478697,4.0300333 0.985588975,4.30391906 0.806390975,4.61693135 L0.582393485,4.92994365 C0.223997494,5.3994621 0.179197995,5.9472336 0.447994988,6.45587861 L0.447994988,6.45587861 L0.447994988,6.45587861 Z M33.3308271,8.80347081 C32.9276316,10.1728996 33.0172306,10.9554303 32.9724311,11.7379611 C32.9724311,12.0900999 32.6140351,12.4031122 32.1660401,12.3639857 L31.8076441,12.3639857 C31.7180451,12.3639857 31.6284461,12.4031122 31.4940476,12.4031122 C30.9116541,12.4813653 29.7916667,12.6378714 28.9852757,12.4813653 C28.5372807,12.4031122 28.1788847,12.3248591 27.9100877,12.2074795 C27.6860902,12.1292264 27.5516917,11.9335938 27.5068922,11.6988345 C27.4172932,10.7989242 26.7005012,9.85988727 25.5357143,9.39036886 C23.9229323,8.68609117 22.3101504,9.15560963 21.6829574,10.2902792 C21.6381579,10.3685323 21.5933584,10.4467853 21.4589599,10.4859119 C21.3693609,10.564165 21.1901629,10.5250384 21.1005639,10.4467853 C20.6077694,9.97726691 20.025376,9.46862191 19.3533835,9.23386273 C18.591792,8.9208504 18.054198,7.86443389 17.5614035,6.92539702 C17.247807,6.29937242 16.9342105,5.71247437 16.6206141,5.36033555 C16.3070175,5.04732326 15.9934211,4.65605789 15.724624,4.26479252 C15.1422306,3.52138832 14.6494361,2.85623719 14.1566416,2.69973104 C13.7086466,2.58235143 13.2606517,1.83894724 13.1262531,1.13466957 C13.0814536,0.860783813 13.3054511,0.586898051 13.6190476,0.547771514 C14.3358396,0.469518443 15.0526316,0.430391906 15.8142231,0.430391906 C16.5758145,0.430391906 17.2926065,0.469518443 18.054198,0.547771514 C21.5933584,0.860783813 24.9981203,1.7998207 28.1340852,3.2866291 C29.2092732,3.79527408 29.8364662,4.73431096 30.3740602,5.75160092 C30.5532582,6.10373974 31.4044486,5.36033555 31.8524436,5.59509478 C32.6588346,6.0254867 33.1516291,6.76889088 33.1516291,7.59054816 C33.1516291,7.98181353 33.4204261,8.41220545 33.3308271,8.80347081 L33.3308271,8.80347081 L33.3308271,8.80347081 Z M3.13596491,13.6551614 C2.86716792,13.3030225 3.04636592,12.9508837 3.5391604,12.9117572 C4.16635338,12.8335041 5.01754386,12.5204918 5.33114034,12.4031122 C5.77913535,12.246606 6.85432331,12.246606 7.88471177,12.246606 C8.60150375,12.246606 9.36309524,12.2857326 9.90068924,12.2074795 C10.7518797,12.1292264 11.5134712,11.659708 12.2302631,11.2293161 C12.7230576,10.9554303 13.1262531,10.642418 13.4846491,10.564165 C13.8878446,10.4859119 14.3806391,10.5250384 14.9630326,10.564165 C15.635025,10.642418 16.441416,10.6815446 17.2926065,10.564165 C18.054198,10.4467853 18.591792,10.2120261 18.9949875,9.97726691 C19.3533835,9.74250768 19.8013784,9.74250768 20.1597745,9.97726691 C20.5181704,10.2511526 20.8317669,10.5250384 21.1005639,10.7989242 C21.2349624,10.9554303 21.3693609,11.151063 21.3693609,11.3466957 C21.5037594,12.2074795 22.2205514,13.1073899 23.3405388,13.5769083 C24.9533208,14.281186 26.5213032,13.850794 27.1932957,12.7161245 C27.2380952,12.6378714 27.2380952,12.5596183 27.4172932,12.4813653 C27.5516917,12.4031122 27.6860902,12.4031122 27.8204887,12.4813653 C28.1788847,12.6378714 28.5372807,12.7161245 28.9852757,12.7943776 C29.2540727,12.8335041 29.5228697,12.8726306 29.8364662,12.8726306 C30.5084587,12.8726306 31.1804511,12.755251 31.6284461,12.7161245 C31.7628446,12.7161245 31.8524436,12.6769979 31.9420426,12.6769979 C32.1660401,12.6378714 32.3004386,12.6378714 32.5692356,12.7161245 C32.5692356,12.755251 32.8380326,12.7943776 32.7484336,13.0291368 L31.5388471,16.7461578 C31.2252506,17.4504354 30.1500626,18.5068519 29.2092732,18.9763704 C26.9692983,19.9936603 26.8796993,19.7589011 23.9229323,19.8371542 C23.6989348,19.8371542 23.4749374,19.8762807 23.2509398,19.8762807 L21.5933584,20.0327869 C20.9661654,20.11104 20.2941729,20.1501665 19.6669799,20.1501665 C17.875,20.1501665 14.4254386,20.11104 12.9470551,19.8371542 L12.4542607,19.7589011 C9.45269423,19.1720031 6.80952381,17.7243212 4.88314536,15.6114882 L4.03195489,14.789831 C3.7183584,14.3985656 3.4047619,14.0464267 3.13596491,13.6551614 L3.13596491,13.6551614 L3.13596491,13.6551614 Z M1.52318296,9.58600155 C1.79197995,9.11648309 2.15037594,8.76434427 2.55357143,8.41220545 L2.55357143,8.41220545 C2.86716792,8.09919312 3.31516291,7.90356044 3.80795739,7.98181353 C4.25595238,8.02094008 4.65914787,8.21657276 5.01754386,8.49045849 C5.24154135,8.68609117 5.51033832,8.9208504 5.82393485,9.19473618 C6.3167293,9.70338114 6.58552633,9.74250768 6.98872179,9.74250768 C7.25751882,9.74250768 7.57111529,9.74250768 8.15350879,9.93814037 C8.55670426,10.0946465 8.87030073,10.1728996 9.18389725,10.2902792 C9.67669171,10.4467853 10.0798872,10.564165 10.5726817,10.8380507 C10.9758772,11.0728099 10.9310777,11.6205815 10.4830827,11.7770876 C10.2590852,11.8553407 10.0350877,11.8944672 9.85588975,11.9335938 C9.31829574,11.9727203 8.60150375,11.9727203 7.88471177,11.9727203 C6.76472431,11.9727203 5.68953636,11.9335938 5.15194236,12.1292264 C4.25595238,12.4813653 2.82236842,12.7161245 2.37437343,12.4813653 L2.37437343,12.4813653 C2.01597745,11.8553407 1.65758145,11.1901896 1.43358396,10.4859119 C1.20958647,10.0163935 1.38878446,9.85988727 1.52318296,9.58600155 L1.52318296,9.58600155 L1.52318296,9.58600155 Z M0.895989977,5.12557632 L1.11998747,4.81256404 C1.34398496,4.49955174 1.52318296,4.18653945 1.65758145,3.87352715 L2.15037594,2.73885758 C2.55357143,1.7998207 3.5839599,1.21292264 4.74874687,1.21292264 L8.51190476,1.21292264 C9.40789473,1.21292264 10.2590852,1.09554303 11.1550752,0.939036886 C11.3342732,0.89991035 11.5134712,0.860783813 11.7374687,0.821657276 C12.0958647,0.743404203 12.4542607,0.978163423 12.4990602,1.29117572 C12.6334587,2.03457992 13.2158522,2.62147797 13.7534461,2.9736168 C14.2014411,3.2866291 15.0974311,3.75614754 15.5902255,4.42129867 C15.9038221,4.81256404 16.2174185,5.24295596 16.531015,5.55596823 C16.8446115,5.86898051 17.1134085,6.45587861 17.427005,7.04277666 C17.7406015,7.62967471 18.054198,8.25569926 18.412594,8.72521772 C18.8157895,9.23386273 18.5469925,9.89901382 17.9197995,10.0946465 C17.7406015,10.1337731 17.516604,10.2120261 17.2926065,10.2511526 C16.4862155,10.3685323 15.724624,10.3294057 15.0526316,10.2511526 C14.4254386,10.2120261 13.9326441,10.1337731 13.4398496,10.2511526 C12.9918546,10.3294057 12.4990602,10.642418 12.0062657,10.9554303 C11.8718672,11.0336834 11.6478697,11.0336834 11.5134712,10.9554303 C10.7070802,10.3294057 10.1246867,10.1728996 9.40789473,9.93814037 C9.09429826,9.85988727 8.78070174,9.74250768 8.42230577,9.58600155 C7.75031328,9.35124232 7.39191731,9.35124232 7.12312028,9.35124232 C6.80952381,9.35124232 6.67512532,9.35124232 6.27192981,8.9208504 C5.42073933,8.02094008 4.61434837,7.59054816 4.56954887,7.59054816 L4.52474937,7.59054816 C3.80795739,7.31666239 3.00156641,7.27753584 2.41917293,7.35578893 C2.01597745,7.39491548 1.61278196,7.31666239 1.29918546,7.08190316 C1.20958647,7.00365011 1.11998747,6.92539702 1.11998747,6.84714398 L1.11998747,6.80801743 L0.895989977,6.33849897 C0.582393485,5.9472336 0.627192981,5.47771514 0.895989977,5.12557632 L0.895989977,5.12557632 L0.895989977,5.12557632 Z" fill="#F8F9F9"></path>
                                    <path d="M24.9085213,13.5769083 C25.8493108,13.5769083 26.4765038,13.1856429 26.8348998,12.5204918 C27.1036968,12.0509733 27.2828947,11.5423284 26.9692983,10.9945569 C26.6557017,10.4467853 26.1181078,9.97726691 25.4013158,9.66425459 C24.9085213,9.46862191 24.4157268,9.35124232 23.9229323,9.35124232 C22.9821429,9.35124232 22.3997494,9.74250768 22.0861529,10.4076588 C21.8173559,10.8771772 21.5933584,11.3858222 21.8621554,11.9335938 C22.1757519,12.4813653 22.7133459,12.9508837 23.4301379,13.263896 C23.9229323,13.4986552 24.4157268,13.5769083 24.9085213,13.5769083 L24.9085213,13.5769083 L24.9085213,13.5769083 Z" fill="#934C4B"></path>
                                    <path d="M24.9981203,12.7943776 C25.2221178,12.7943776 25.4013158,12.6769979 25.4909148,12.5204918 C25.5357143,12.4031122 25.5805138,12.2857326 25.5357143,12.1292264 C25.4461153,11.9727203 25.3117168,11.8553407 25.1325188,11.7770876 C24.9981203,11.7379611 24.8637218,11.6988345 24.7741228,11.6988345 C24.5501253,11.6988345 24.4157268,11.8162142 24.3261278,11.9727203 C24.2813283,12.0900999 24.1917293,12.2074795 24.2813283,12.3639857 C24.3709273,12.5204918 24.5053258,12.6378714 24.6845238,12.7161245 C24.7741228,12.755251 24.9085213,12.7943776 24.9981203,12.7943776 L24.9981203,12.7943776 L24.9981203,12.7943776 Z" fill="#F8F9F9"></path>
                                </g>
                                <g id="Shape" transform="translate(1.791980, 1.956327)" fill="#573824">
                                    <path d="M6.49592734,0.0782530739 C6.49592734,0.0782530739 6.71992482,0.313012295 7.03352129,0.743404203 C7.34711781,1.17379611 7.83991227,1.7998207 8.33270678,2.58235143 C8.60150375,2.9736168 8.87030073,3.36488217 9.13909776,3.83440061 C9.40789473,4.26479252 9.72149121,4.73431096 10.0350877,5.24295596 C10.3486842,5.75160092 10.6622807,6.22111938 10.9310777,6.76889088 C11.2446742,7.27753584 11.5582707,7.82530739 11.8270677,8.33395235 C12.1406641,8.88172386 12.4094612,9.39036886 12.7230576,9.93814037 C12.9918546,10.4467853 13.2606517,10.9945569 13.5294486,11.5032018 C14.0670426,12.5204918 14.5150376,13.4986552 14.8734336,14.3203125 C15.2318296,15.1419698 15.5454261,15.8462474 15.724624,16.3548924 C15.9038221,16.8635374 15.9934211,17.1374232 15.9934211,17.1374232 C15.9934211,17.1374232 15.7694236,16.9026639 15.4558271,16.472272 C15.1422306,16.0418801 14.6494361,15.4158555 14.1566416,14.6333248 C13.6190476,13.850794 13.0366541,12.9508837 12.4542607,11.9727203 C12.1406641,11.4640753 11.8270677,10.9945569 11.5582707,10.4467853 C11.2446742,9.93814037 10.9758772,9.39036886 10.6622807,8.84259736 C10.3486842,8.2948258 10.0798872,7.78618085 9.81109025,7.23840934 C9.49749373,6.72976434 9.27349625,6.18199283 9.00469927,5.67334782 C8.73590224,5.16470287 8.51190476,4.65605789 8.28790728,4.18653945 C8.06390975,3.717021 7.83991227,3.24750256 7.66071429,2.85623719 C7.30231832,2.03457992 6.98872179,1.33030225 6.80952381,0.821657276 C6.58552633,0.352138832 6.49592734,0.0782530739 6.49592734,0.0782530739 L6.49592734,0.0782530739 L6.49592734,0.0782530739 Z"></path>
                                    <path d="M13.2158522,0.0782530739 C13.2158522,0.0782530739 13.4398496,0.313012295 13.7534461,0.743404203 C14.0670426,1.17379611 14.5598371,1.7998207 15.0526316,2.58235143 C15.3214286,2.9736168 15.5902255,3.36488217 15.8590226,3.83440061 C16.1278196,4.26479252 16.441416,4.73431096 16.7550125,5.24295596 C17.068609,5.75160092 17.3822055,6.22111938 17.6510025,6.76889088 C17.964599,7.27753584 18.2781955,7.82530739 18.5469925,8.33395235 C18.860589,8.88172386 19.1293859,9.39036886 19.4429825,9.93814037 C19.7117794,10.4467853 19.9805764,10.9945569 20.2493734,11.5032018 C20.7869674,12.5204918 21.2349624,13.4986552 21.5933584,14.3203125 C21.9517544,15.1419698 22.2653509,15.8462474 22.4445489,16.3548924 C22.6237469,16.8635374 22.7133459,17.1374232 22.7133459,17.1374232 C22.7133459,17.1374232 22.4893483,16.9026639 22.1757519,16.472272 C21.8621554,16.0418801 21.3693609,15.4158555 20.8765664,14.6333248 C20.3389724,13.850794 19.7565789,12.9508837 19.1741855,11.9727203 C18.860589,11.4640753 18.5469925,10.9945569 18.2781955,10.4467853 C17.964599,9.93814037 17.695802,9.39036886 17.3822055,8.84259736 C17.068609,8.2948258 16.799812,7.78618085 16.531015,7.23840934 C16.2174185,6.72976434 15.9934211,6.18199283 15.724624,5.67334782 C15.4558271,5.16470287 15.2318296,4.65605789 15.0078321,4.18653945 C14.7838346,3.717021 14.5598371,3.24750256 14.3806391,2.85623719 C14.0222431,2.03457992 13.7086466,1.33030225 13.5294486,0.821657276 C13.3054511,0.352138832 13.2158522,0.0782530739 13.2158522,0.0782530739 L13.2158522,0.0782530739 L13.2158522,0.0782530739 Z"></path>
                                    <path d="M22.1309524,1.09554303 C22.1309524,1.09554303 22.2653509,1.25204918 22.5341478,1.56506147 C22.8029449,1.87807377 23.1165413,2.30846568 23.5197369,2.81711065 C24.2813283,3.87352715 25.2221178,5.321209 26.0733083,6.80801743 C26.8796993,8.2948258 27.6412907,9.85988727 28.0892857,11.0336834 C28.3132832,11.6205815 28.4924812,12.1292264 28.6268797,12.4813653 C28.7612782,12.8335041 28.8060777,13.0291368 28.8060777,13.0291368 C28.8060777,13.0291368 28.6716792,12.8726306 28.4028822,12.5596183 C28.1340852,12.246606 27.8204887,11.8162142 27.4172932,11.3075692 C26.6557017,10.2511526 25.7149123,8.80347081 24.8637218,7.31666239 C24.0125313,5.86898051 23.2957393,4.30391906 22.8029449,3.13012295 C22.5789474,2.5432249 22.3997494,2.03457992 22.2653509,1.68244108 C22.1757519,1.33030225 22.1309524,1.09554303 22.1309524,1.09554303 L22.1309524,1.09554303 L22.1309524,1.09554303 Z"></path>
                                    <path d="M0.35839599,2.34759221 C0.35839599,2.34759221 0.537593983,2.5432249 0.806390975,2.89536373 C1.07518797,3.24750256 1.47838346,3.79527408 1.92637845,4.42129867 C2.37437343,5.04732326 2.86716792,5.82985401 3.4047619,6.65151129 C3.89755639,7.47316852 4.43515038,8.3730789 4.92794486,9.27298922 C5.42073933,10.1728996 5.91353384,11.0728099 6.3167293,11.9335938 C6.71992482,12.7943776 7.12312028,13.6160349 7.39191731,14.3203125 C7.70551378,15.0245901 7.92951126,15.6114882 8.06390975,16.0418801 C8.19830829,16.472272 8.28790728,16.7070312 8.28790728,16.7070312 C8.28790728,16.7070312 8.1087093,16.5113986 7.83991227,16.1592597 C7.57111529,15.8071209 7.16791978,15.2593494 6.71992482,14.6333248 C6.27192981,14.0073002 5.77913535,13.2247695 5.24154135,12.4031122 C4.74874687,11.5814549 4.21115288,10.6815446 3.7183584,9.78163423 C3.22556391,8.88172386 2.73276942,7.98181353 2.32957393,7.1210297 C1.92637845,6.26024593 1.52318296,5.43858864 1.25438597,4.73431096 C0.940789473,4.0300333 0.716791978,3.44313525 0.582393485,3.01274334 C0.447994988,2.58235143 0.35839599,2.34759221 0.35839599,2.34759221 L0.35839599,2.34759221 L0.35839599,2.34759221 Z"></path>
                                </g>
                            </g>
                        </g>
                    </g>
                </g>
            </g>
        </g>
    </g>
</svg>