<?xml version="1.0" encoding="UTF-8" standalone="no"?>
<svg width="65px" height="66px" viewBox="0 0 65 66" version="1.1" xmlns="http://www.w3.org/2000/svg" xmlns:xlink="http://www.w3.org/1999/xlink" xmlns:sketch="http://www.bohemiancoding.com/sketch/ns">
    <!-- Generator: Sketch 3.3.3 (12081) - http://www.bohemiancoding.com/sketch -->
    <title>Slice 1</title>
    <desc>Created with Sketch.</desc>
    <defs></defs>
    <g id="Page-1" stroke="none" stroke-width="1" fill="none" fill-rule="evenodd" sketch:type="MSPage">
        <g id="food2_on1" sketch:type="MSLayerGroup">
            <g id="Page-1" sketch:type="MSShapeGroup">
                <g id="food2_on1">
                    <g id="Page-1">
                        <path d="M33.015873,66 C50.6802186,66 65,51.9039654 65,34.515625 C65,17.1272848 50.6802186,3.03125 33.015873,3.03125 C15.3515274,3.03125 1.03174603,17.1272848 1.03174603,34.515625 C1.03174603,51.9039654 15.3515274,66 33.015873,66 L33.015873,66 L33.015873,66 Z" id="Oval-Copy" fill="#3F3F3F"></path>
                        <g id="food2_on" fill="#666666">
                            <g id="Page-1">
                                <g id="Group">
                                    <path d="M31.984127,62.96875 C49.6484726,62.96875 63.968254,48.8727152 63.968254,31.484375 C63.968254,14.0960348 49.6484726,0 31.984127,0 C14.3197814,0 0,14.0960348 0,31.484375 C0,48.8727152 14.3197814,62.96875 31.984127,62.96875 L31.984127,62.96875 L31.984127,62.96875 Z" id="Oval"></path>
                                </g>
                            </g>
                        </g>
                        <g id="restaurant-eating-tools-set-of-three-pieces" transform="translate(14.000000, 9.000000)" fill="#FFFFFF">
                            <g id="Group">
                                <path d="M32.8914536,42.7941818 C32.8914536,42.7941818 32.8914536,30.1536234 32.8873286,28.8960779 C32.8914536,27.7485195 32.8545643,0.200337662 32.8545643,0.200337662 L32.2219071,0.197649351 C32.2219071,0.197649351 27.0498643,3.09167532 27.0512786,24.5518831 C31.0237714,25.6342208 29.35185,29.9392597 29.0506071,30.4851039 C29.0506071,31.5784286 29.1354643,42.7996753 29.1354643,42.7996753 L29.1477214,42.796987 C29.1435964,42.8091429 29.1395893,42.8188442 29.1408857,42.8335714 C29.1353464,43.8642468 29.97885,44.701013 31.0141071,44.6927143 C32.0466536,44.6954026 32.8928679,43.8574675 32.8887429,42.8335714 C32.8928679,42.8241039 32.8928679,42.8091429 32.8860321,42.8022468 L32.8914536,42.7941818 L32.8914536,42.7941818 Z" id="Shape"></path>
                                <path d="M23.7209893,0.991285714 L22.59675,0.99 L22.9295786,12.6656883 L21.5792893,12.663 L21.5792893,0.988597403 L20.5934143,0.991285714 L20.5934143,12.7382727 L19.4733,12.7382727 L19.4733,0.99 L18.3860679,0.991285714 L18.3833571,12.7382727 L17.0592321,12.7382727 L17.4377893,0.987194805 L16.4129036,0.987194805 L15.1660929,10.9258831 C15.1660929,10.9258831 15.1353321,11.300026 15.1353321,11.4419221 C15.1353321,12.9744935 15.8521393,14.3454156 16.9722536,15.237 C20.6647179,19.3701039 18.1444607,23.5861948 18.1444607,24.5883506 C18.1471714,25.6965195 18.1471714,42.7628571 18.1471714,42.7628571 L18.1497643,42.7628571 C18.1497643,42.7762987 18.1457571,42.7858831 18.1443429,42.8021299 C18.1457571,43.8478831 19.0009286,44.6925974 20.0538643,44.6952857 C21.1082143,44.6952857 21.9655071,43.8451948 21.9655071,42.8034156 C21.9640929,42.7858831 21.9585536,42.775013 21.9585536,42.7669481 L21.9612643,42.7669481 C21.9612643,42.7669481 21.963975,25.9111169 21.963975,24.6235325 C21.9612643,23.4624156 19.8318214,18.6115325 23.3921679,15.0087273 C23.3948786,15.0033506 23.4031286,14.9937662 23.4086679,14.9862857 C24.2768036,14.1702078 24.8492357,13.044974 24.9368036,11.7813506 C24.9423429,11.6924026 24.9395143,11.4683377 24.9395143,11.4683377 L23.7209893,0.991285714 L23.7209893,0.991285714 Z" id="Shape"></path>
                                <path d="M6.68839286,0.00268831169 L6.68839286,0 L6.5802,0 L6.5802,0.00268831169 C2.44553571,0.0693116883 0.116207143,3.9952987 0.116207143,8.26293506 C0.114792857,12.5658701 2.72403214,15.6362727 4.99855714,16.3187532 C6.24536786,18.0502597 5.42378571,22.143974 4.543275,24.5043117 L4.543275,42.9340909 L4.5474,42.9340909 C4.54598571,42.9462468 4.543275,42.9599221 4.543275,42.9734805 C4.543275,44.0313896 5.40799286,44.8909481 6.47683929,44.8909481 L6.79246071,44.8909481 C7.86048214,44.8909481 8.726025,44.0313896 8.726025,42.9734805 C8.726025,42.9599221 8.72461071,42.9463636 8.7219,42.9340909 L8.726025,42.9340909 L8.726025,24.5043117 C7.84551429,22.143974 7.02463929,18.0502597 8.27003571,16.3187532 C10.5458571,15.6363896 13.1523857,12.5658701 13.1538,8.26293506 C13.1536821,3.9952987 10.8237643,0.0693116883 6.68839286,0.00268831169 L6.68839286,0.00268831169 Z M4.53031071,14.6517662 C4.27220357,14.4542338 3.94279286,14.1384156 3.59770714,13.7228961 C3.2472,13.3080779 2.88431786,12.794026 2.54194286,12.2025974 C2.37623571,11.9051299 2.21948571,11.588026 2.07357857,11.2526883 C1.934625,10.9022727 1.81959643,10.5648312 1.741575,10.1655584 C1.59849643,9.39763636 1.62242143,8.66361039 1.70327143,7.98802597 C1.77928929,7.31302597 1.92378214,6.69716883 2.08465714,6.18451948 C2.24211429,5.66848052 2.42290714,5.25354545 2.57282143,4.97045455 C2.71861071,4.68257143 2.83776429,4.54605195 2.83776429,4.54605195 C2.83776429,4.54605195 2.812425,4.72932468 2.80016786,5.03298701 C2.79050357,5.33723377 2.77482857,5.77379221 2.75903571,6.29520779 C2.74677857,7.32319481 2.66109643,8.72064935 2.85485357,9.96253247 C2.89115357,10.2531039 2.99510357,10.5824805 3.09587143,10.8778442 C3.18968571,11.1861818 3.3033,11.491013 3.42516429,11.782987 C3.65805,12.3723117 3.90920357,12.918974 4.125,13.3901299 C4.34397857,13.8573117 4.53856071,14.2484026 4.69047857,14.5111558 C4.83497143,14.7806883 4.96638214,14.8961688 4.97592857,14.8852987 C4.97875714,14.898974 4.78299643,14.8561948 4.53031071,14.6517662 L4.53031071,14.6517662 Z" id="Shape"></path>
                            </g>
                        </g>
                    </g>
                </g>
            </g>
        </g>
    </g>
</svg>