<?xml version="1.0" encoding="UTF-8" standalone="no"?>
<svg width="124px" height="124px" viewBox="0 0 124 124" version="1.1" xmlns="http://www.w3.org/2000/svg" xmlns:xlink="http://www.w3.org/1999/xlink" xmlns:sketch="http://www.bohemiancoding.com/sketch/ns">
    <!-- Generator: Sketch 3.3.3 (12081) - http://www.bohemiancoding.com/sketch -->
    <title>Slice 1</title>
    <desc>Created with Sketch.</desc>
    <defs></defs>
    <g id="Page-1" stroke="none" stroke-width="1" fill="none" fill-rule="evenodd" sketch:type="MSPage">
        <g id="Group" sketch:type="MSLayerGroup">
            <path d="M62,124 C96.2416545,124 124,96.2416545 124,62 C124,27.7583455 96.2416545,0 62,0 C27.7583455,0 0,27.7583455 0,62 C0,96.2416545 27.7583455,124 62,124 Z" id="Oval" fill="#3567A2" sketch:type="MSShapeGroup"></path>
            <g transform="translate(49.000000, 21.000000)" sketch:type="MSShapeGroup">
                <g transform="translate(3.000000, 0.000000)">
                    <path d="M49.5,58.1 C45.2,57.9 40.8,55.5 36.6,56.7 C34.7,57.3 24,58.7 17.7,57.5 C14.1,56.8 10.2,57.8 6.4,58 C4.2,58 2.4,56.1 2.4,53.8 C3.2,39.7 0.2,25.9 1.6,13.2 C1.7,12.3 1.7,11.4 1.7,10.5 C1.7,6.4 5.7,3 9.9,3 C21.9,1.2 34,1.2 46,3 C50.3,3 54.4,6.3 54.1,11 C54.1,11.7 54.1,12.4 54.2,13.1 C55.5,27.7 52.7,39.3 53.4,53.8 C53.5,56.2 51.7,58.1 49.5,58.1 L49.5,58.1 Z" id="Shape" fill="#F0E5D0"></path>
                    <path d="M23.7,53 C21.7,53 20,52.9 18.7,52.6 C17.5,52.4 16.3,52.3 15,52.3 C13.1,52.3 11.2,52.5 9.4,52.7 C8.8,52.8 8.2,52.9 7.6,52.9 C7.9,46.4 7.4,40.1 7,34 C6.5,26.9 6,20.1 6.7,13.8 C6.8,12.8 6.9,11.8 6.8,10.5 C6.8,9.9 7.3,9.3 7.5,9.1 C8.2,8.4 9.1,8 10,8 L10.4,8 L10.8,7.9 C16.5,7 22.4,6.6 28.1,6.6 C33.8,6.6 39.7,7 45.4,7.9 L45.8,8 L46.2,8 C47.2,8 48.1,8.4 48.7,9 C49.2,9.5 49.4,10 49.3,10.7 C49.2,11.7 49.3,12.7 49.4,13.5 C50,20.9 49.6,27.5 49.1,34.4 C48.7,40.2 48.3,46.2 48.6,52.8 C47.8,52.7 46.9,52.4 46,52.2 C44,51.7 41.8,51.2 39.4,51.2 C38,51.2 36.6,51.4 35.3,51.8 C34.3,52.2 28.9,53 23.7,53 L23.7,53 Z" id="Shape" fill="#F0E5D0"></path>
                    <path d="M23.7,48 C21.5,48 20.2,47.8 19.6,47.7 C18.1,47.4 16.6,47.3 14.9,47.3 C14.1,47.3 13.3,47.3 12.5,47.4 C12.4,42.7 12.1,38.2 11.8,33.8 C11.3,26.9 10.8,20.3 11.5,14.5 C11.6,14 11.6,13.5 11.6,13 C17,12.2 22.5,11.8 27.9,11.8 C33.3,11.8 38.8,12.2 44.2,13 C44.2,13.4 44.3,13.8 44.3,14.1 C44.9,21.1 44.5,27.5 44,34.3 C43.7,38.3 43.4,42.5 43.4,46.9 C42.1,46.7 40.7,46.5 39.2,46.5 C37.3,46.5 35.5,46.8 33.7,47.3 C33,47.3 28.3,48 23.7,48 L23.7,48 Z" id="Shape" fill="#EEE5D7"></path>
                    <path d="M23.7,43 C21.7,43 20.7,42.8 20.5,42.8 C19.5,42.6 18.5,42.5 17.4,42.4 C17.3,39.3 17,36.3 16.8,33.4 C16.4,27.7 16,22.2 16.3,17.4 C20.2,17 24.1,16.8 27.9,16.8 C31.7,16.8 35.6,17 39.5,17.4 C39.8,23 39.4,28.3 39,33.9 C38.8,36.3 38.7,38.8 38.5,41.4 C36.4,41.5 34.4,41.8 32.5,42.3 C31.6,42.5 27.5,43 23.7,43 L23.7,43 Z" id="Shape" fill="#ECE6DE"></path>
                    <path d="M49.5,58.9 L49.5,58.9 C47.8,58.8 46.1,58.4 44.5,58 C42.7,57.6 40.9,57.1 39.2,57.1 C38.3,57.1 37.5,57.2 36.8,57.4 C35.3,57.9 29.1,58.7 23.6,58.7 C21.2,58.7 19.2,58.5 17.5,58.2 C16.7,58 15.8,58 14.8,58 C13.2,58 11.6,58.2 9.9,58.4 C8.8,58.5 7.6,58.7 6.4,58.8 L6.4,58.8 C3.7,58.8 1.5,56.6 1.5,53.8 C1.9,47.2 1.4,40.7 0.9,34.4 C0.4,27 -0.1,20 0.6,13.1 C0.7,12.4 0.7,11.5 0.7,10.5 C0.7,8.5 1.5,6.6 3,5.1 C4.7,3.3 7.2,2.2 9.7,2.1 C15.7,1.2 21.8,0.8 27.8,0.8 C33.8,0.8 39.9,1.3 45.9,2.1 C48.5,2.1 51,3.2 52.7,5.1 C54.2,6.7 54.9,8.8 54.8,11 C54.8,11.6 54.8,12.3 54.9,13 C55.6,20.9 55.1,28 54.6,34.8 C54.2,40.8 53.8,47 54.1,53.7 C54.3,56.7 52.1,58.9 49.5,58.9 L49.5,58.9 Z M9.9,3.9 C7.9,3.9 5.8,4.8 4.3,6.4 C3.1,7.6 2.5,9.1 2.5,10.6 C2.5,11.7 2.5,12.6 2.4,13.4 C1.7,20.1 2.2,27 2.7,34.4 C3.2,40.8 2.8,47.3 2.5,53.9 C2.5,55.7 4.2,58.2 6.5,58.1 C7.6,58.1 8.7,57.9 9.9,57.8 C11.6,57.6 13.3,57.4 15,57.4 C16.1,57.4 17.1,57.5 18,57.7 C19.5,58 21.5,58.1 23.8,58.1 C29.4,58.1 35.3,57.2 36.5,56.8 C37.4,56.5 38.3,56.4 39.3,56.4 C41.2,56.4 43.1,56.9 44.9,57.3 C46.5,57.7 48,58.1 49.5,58.1 C51.2,58.1 53.5,55.8 53.5,53.9 C53.1,47.1 52.8,40.8 53.2,34.8 C53.7,28 54.1,21 53.5,13.3 C53.4,12.5 53.4,11.8 53.4,11 C53.5,9.3 52.9,7.7 51.8,6.4 C50.4,4.9 48.3,3.9 46.1,3.9 L46,3.9 C40,3 34,2.6 28,2.6 C22,2.6 16,3 10.1,3.9 L9.9,3.9 L9.9,3.9 Z" id="Shape" fill="#DDAF86"></path>
                    <path d="M0.9,13.3 L0.9,11.3 C0.9,11 0.8,10.7 0.8,10.3 L0.8,9.3 C1,7.9 1.5,6.6 2.3,5.5 C3.1,4.4 4.2,3.5 5.3,2.8 C6.5,2.1 7.8,1.7 9.2,1.7 L9.1,1.7 C10.7,1.4 12.2,1.2 13.8,1 C15.4,0.8 16.9,0.6 18.5,0.5 L20.9,0.3 L23.3,0.2 C24.9,0.2 26.4,0.1 28,0.1 C29.6,0.1 31.1,0.2 32.7,0.3 C34.3,0.4 35.8,0.5 37.4,0.6 C39,0.8 40.5,0.9 42.1,1.1 C43.7,1.3 45.2,1.6 46.8,1.9 L46.7,1.9 C48.1,1.9 49.4,2.3 50.6,2.9 C51.8,3.5 52.9,4.4 53.7,5.5 C54.5,6.6 55.1,7.9 55.2,9.2 C55.3,9.9 55.3,10.6 55.2,11.2 C55,11.9 55,12.5 55,13.2 C54.9,12.6 53.9,12.4 53.9,11.8 C53.9,11.1 53.5,10.7 53.3,10.1 C53,7.2 50.8,5.6 49.7,5.2 C48.6,4.8 45.8,3.9 45.8,3.9 L44.1,3.5 L41.8,3.3 C40.3,3.2 38.7,3.1 37.2,3 L32.6,2.8 C31.1,2.7 29.5,2.7 28,2.7 L23.4,2.7 C21.9,2.7 20.3,2.8 18.8,2.9 C17.3,3 11.9,3.7 11.9,3.7 L9.5,4 C9.5,4 7.5,4.4 6.5,4.9 C5.4,5.4 4.1,7.2 3.3,8.1 C2.5,9 1.8,8.4 1.5,9.6 C1.4,9.9 1.4,10.2 1.3,10.5 L1.2,11.5 C1.1,12 1,12.7 0.9,13.3 L0.9,13.3 Z" id="Shape" fill="#A77E5E"></path>
                    <path d="M12.5,20.6 C12.2,21 11.3,20.8 10.5,20.1 C9.7,19.4 9.2,18.6 9.5,18.2 C9.8,17.8 10.7,18 11.5,18.7 C12.4,19.4 12.8,20.2 12.5,20.6 L12.5,20.6 Z" id="Shape" fill="#DCD2C2"></path>
                    <ellipse id="Oval" fill="#DCD2C2" cx="27.2" cy="7.6" rx="1.9" ry="0.9"></ellipse>
                    <path d="M19.7,33.1 C19.9,33.6 19.3,34.3 18.3,34.7 C17.3,35.1 16.4,35.1 16.2,34.6 C16,34.1 16.6,33.4 17.6,33 C18.6,32.7 19.5,32.7 19.7,33.1 L19.7,33.1 Z" id="Shape" fill="#DCD2C2"></path>
                    <ellipse id="Oval" fill="#DCD2C2" cx="38.5" cy="19.4" rx="1.9" ry="0.9"></ellipse>
                    <path d="M35.7,33 C35.9,33.5 35.3,34.2 34.3,34.6 C33.3,35 32.4,35 32.2,34.5 C32,34 32.6,33.3 33.6,32.9 C34.6,32.5 35.5,32.5 35.7,33 L35.7,33 Z" id="Shape" fill="#DCD2C2"></path>
                    <path d="M23.1,24.9 C22.9,25.3 22,25.3 21,24.8 C20,24.3 19.5,23.6 19.7,23.1 C19.9,22.7 20.8,22.7 21.8,23.2 C22.8,23.7 23.4,24.4 23.1,24.9 L23.1,24.9 Z" id="Shape" fill="#DCD2C2"></path>
                    <path d="M31.4,39.4 C31.2,39.8 30.3,39.8 29.3,39.3 C28.4,38.8 27.8,38.1 28,37.6 C28.2,37.2 29.1,37.2 30.1,37.7 C31,38.2 31.6,39 31.4,39.4 L31.4,39.4 Z" id="Shape" fill="#DCD2C2"></path>
                    <ellipse id="Oval" fill="#DCD2C2" cx="46.6" cy="27.9" rx="1.9" ry="0.9"></ellipse>
                    <ellipse id="Oval" fill="#DCD2C2" cx="14.2" cy="11" rx="1.9" ry="0.9"></ellipse>
                    <path d="M21.3,15 C21.8,15.2 21.9,16.1 21.5,17.2 C21.2,18.2 20.5,18.9 20.1,18.8 C19.7,18.7 19.5,17.7 19.9,16.6 C20.2,15.6 20.9,14.9 21.3,15 L21.3,15 Z" id="Shape" fill="#DCD2C2"></path>
                    <ellipse id="Oval" fill="#DCD2C2" cx="43.4" cy="8.4" rx="1.9" ry="0.9"></ellipse>
                    <path d="M45.8,11.8 C46.2,11.6 47,12.1 47.5,13.1 C48,14.1 48.1,15 47.6,15.3 C47.2,15.5 46.4,15 45.9,14 C45.4,13 45.4,12 45.8,11.8 L45.8,11.8 Z" id="Shape" fill="#DCD2C2"></path>
                    <path d="M31.8,12.6 C32.2,12.4 33,12.9 33.5,13.9 C34,14.9 34.1,15.8 33.6,16.1 C33.2,16.3 32.4,15.8 31.9,14.8 C31.4,13.8 31.4,12.8 31.8,12.6 L31.8,12.6 Z" id="Shape" fill="#DCD2C2"></path>
                    <path d="M38.4,25 C38.7,25.4 38.2,26.3 37.4,26.9 C36.6,27.5 35.6,27.7 35.4,27.3 C35.1,26.9 35.6,26 36.4,25.4 C37.2,24.8 38.1,24.6 38.4,25 L38.4,25 Z" id="Shape" fill="#DCD2C2"></path>
                    <ellipse id="Oval" fill="#DCD2C2" cx="46.6" cy="52.4" rx="1.9" ry="0.9"></ellipse>
                    <path d="M13.9,39.1 C14.3,39.4 14,40.4 13.3,41.2 C12.6,42 11.8,42.4 11.4,42.1 C11,41.8 11.3,40.8 12,40 C12.7,39.2 13.5,38.8 13.9,39.1 L13.9,39.1 Z" id="Shape" fill="#DCD2C2"></path>
                    <ellipse id="Oval" fill="#DCD2C2" cx="27.2" cy="28.7" rx="1.9" ry="0.9"></ellipse>
                    <ellipse id="Oval" fill="#DCD2C2" cx="7.8" cy="33.8" rx="1.9" ry="0.9"></ellipse>
                    <ellipse id="Oval" fill="#DCD2C2" cx="8.6" cy="52.4" rx="1.9" ry="0.9"></ellipse>
                    <ellipse id="Oval" fill="#DCD2C2" cx="15" cy="48.2" rx="1.9" ry="0.9"></ellipse>
                    <ellipse id="Oval" fill="#DCD2C2" cx="21.5" cy="40.6" rx="1.9" ry="0.9"></ellipse>
                    <path d="M14.2,29.3 C14,29.7 13,29.7 12.1,29.1 C11.2,28.6 10.6,27.8 10.9,27.3 C11.2,26.8 12.1,26.9 13,27.5 C13.9,28.1 14.4,28.8 14.2,29.3 L14.2,29.3 Z" id="Shape" fill="#DCD2C2"></path>
                    <path d="M27.3,48.8 C27.1,49.2 26.1,49.2 25.2,48.6 C24.3,48.1 23.7,47.3 24,46.8 C24.3,46.3 25.2,46.4 26.1,47 C27,47.5 27.5,48.3 27.3,48.8 L27.3,48.8 Z" id="Shape" fill="#DCD2C2"></path>
                    <ellipse id="Oval" fill="#DCD2C2" cx="26.4" cy="52.4" rx="1.9" ry="0.9"></ellipse>
                    <ellipse id="Oval" fill="#DCD2C2" transform="translate(34.408360, 47.399788) rotate(91.865141) translate(-34.408360, -47.399788) " cx="34.4083604" cy="47.3997882" rx="2.00005963" ry="0.900026832"></ellipse>
                    <ellipse id="Oval" fill="#DCD2C2" cx="29.6" cy="22" rx="1.9" ry="0.9"></ellipse>
                    <ellipse id="Oval" fill="#DCD2C2" cx="49.8" cy="22.8" rx="1.9" ry="0.9"></ellipse>
                    <ellipse id="Oval" fill="#DCD2C2" cx="49" cy="37.2" rx="1.9" ry="0.9"></ellipse>
                    <path d="M44.9,42.3 C45.4,42.4 45.5,43.4 45.2,44.4 C44.9,45.4 44.3,46.2 43.8,46 C43.3,45.8 43.2,45 43.5,44 C43.8,42.9 44.4,42.2 44.9,42.3 L44.9,42.3 Z" id="Shape" fill="#DCD2C2"></path>
                    <path d="M44.5,31.7 C45,31.8 45.1,32.8 44.8,33.8 C44.5,34.8 43.9,35.6 43.4,35.4 C42.9,35.3 42.8,34.3 43.1,33.3 C43.4,32.2 44.1,31.5 44.5,31.7 L44.5,31.7 Z" id="Shape" fill="#DCD2C2"></path>
                </g>
                <g id="Shape">
                    <path d="M58.3,11.3 C57.5,10.7 56.6,10.3 55.7,10.1 L14,0.6 C13,0.4 12,0.8 11.4,1.6 L11.4,1.6 C10.2,3.3 9.4,5.2 9,7.3 L3.3,38.4 C3,39.8 2.7,41.1 2.2,42.4 L0.2,47.7 C-0.1,48.4 0.4,49.2 1.1,49.4 L47.2,59.5 C47.9,59.7 48.7,59.2 48.8,58.4 L57,19.4 C57.2,18.2 57.6,17.1 57.9,15.9 L58.9,13 C59.1,12.4 58.8,11.7 58.3,11.3 L58.3,11.3 Z M22.8,36.9 C19.3,38.1 15.9,37.4 15.2,35.4 C14.5,33.4 16.9,30.9 20.4,29.7 C23.9,28.5 27.3,29.2 28,31.2 C28.7,33.2 26.4,35.7 22.8,36.9 L22.8,36.9 Z M28.1,15.4 C27.7,16.4 25.8,16.6 23.8,15.9 C21.8,15.1 20.6,13.6 21,12.6 C21.4,11.6 23.3,11.4 25.3,12.1 C27.2,12.9 28.5,14.4 28.1,15.4 L28.1,15.4 Z M40.8,42.6 C39.8,42.8 39,42.5 38.9,41.9 C38.8,41.3 39.5,40.7 40.4,40.6 C41.4,40.4 42.2,40.7 42.3,41.3 C42.5,41.8 41.8,42.4 40.8,42.6 L40.8,42.6 Z M47.7,23.7 C47.1,26.2 45.4,28 44.1,27.7 C42.7,27.4 42.1,25 42.7,22.5 C43.3,20 45,18.2 46.3,18.5 C47.7,18.9 48.4,21.2 47.7,23.7 L47.7,23.7 Z" fill="#F4C63B"></path>
                    <path d="M20.5,29.7 C24,28.5 27.4,29.2 28.1,31.2 L28.1,31.4 C28.2,31 28.2,30.6 28.1,30.2 C27.4,28.2 24.1,27.6 20.5,28.7 C17.1,29.8 14.8,32.2 15.3,34.2 C15.6,32.5 17.6,30.6 20.5,29.7 L20.5,29.7 Z" opacity="0.1" fill="#313131"></path>
                    <path d="M24.3,11.1 C22.3,10.3 20.4,10.5 20,11.6 C19.7,12.3 20.3,13.3 21.3,14.1 C20.9,13.6 20.8,13.1 21,12.6 C21.4,11.6 23.3,11.4 25.3,12.1 C25.9,12.3 26.4,12.6 26.8,12.9 C26.3,12.2 25.4,11.6 24.3,11.1 L24.3,11.1 Z" opacity="0.1" fill="#313131"></path>
                    <path d="M45.3,17.5 C43.9,17.2 42.3,18.9 41.7,21.5 C41.1,23.9 41.7,26.1 42.9,26.6 C42.4,25.6 42.3,24.1 42.7,22.5 C43.3,20 45,18.2 46.3,18.5 C46.4,18.5 46.4,18.6 46.5,18.6 C46.3,18.1 45.9,17.7 45.3,17.5 L45.3,17.5 Z" opacity="0.1" fill="#313131"></path>
                    <path d="M39.4,39.5 C38.4,39.7 37.8,40.3 37.9,40.8 C38,41.2 38.8,42.2 39.3,42.3 L39.3,42.3 C39.1,42.2 38.9,42 38.9,41.8 C38.8,41.2 39.5,40.6 40.4,40.5 C41.2,40.4 41.9,40.5 42.2,40.9 L42.2,40.9 C42.2,40.8 41.6,40.3 41.6,40.2 C41.5,39.7 40.4,39.4 39.4,39.5 L39.4,39.5 Z" opacity="0.1" fill="#313131"></path>
                </g>
                <path d="M23.2,45.7 C22.1,44.9 22.4,42.8 24,41 C25.6,39.3 27.8,38.5 28.9,39.4 C30,40.2 29.7,42.3 28.1,44.1 C26.5,45.8 24.3,46.6 23.2,45.7 L23.2,45.7 Z" id="Shape" fill="#E3B544"></path>
                <ellipse id="Oval" fill="#E3B544" transform="translate(18.285070, 15.598940) rotate(-39.957430) translate(-18.285070, -15.598940) " cx="18.28507" cy="15.59894" rx="2.69992317" ry="1.29996301"></ellipse>
                <ellipse id="Oval" fill="#E3B544" cx="36" cy="23.3" rx="3.4" ry="2.2"></ellipse>
            </g>
        </g>
        <g id="1463604015_food-02" sketch:type="MSLayerGroup" transform="translate(35.786177, 59.040405) rotate(-10.000000) translate(-35.786177, -59.040405) translate(5.786177, 33.040405)">
            <g id="Group" sketch:type="MSShapeGroup">
                <g id="Shape">
                    <path d="M59.5,26.9454545 C57.6666667,40.5757576 46.3333333,51.8424242 30.1666667,51.8424242 C14,51.8424242 0.333333333,40.6545455 0.333333333,26.9454545 C0.333333333,15.6787879 6.41666667,1.26060606 29.3333333,2.52121212 C34.3333333,2.83636364 39.4166667,5.43636364 44.6666667,6.85454545 C53,9.13939394 60.9166667,16.3878788 59.5,26.9454545 L59.5,26.9454545 Z" fill="#DF5F4F"></path>
                    <g transform="translate(0.000000, 2.363636)">
                        <path d="M31.75,2.52121212 C36.75,2.83636364 41.8333333,5.43636364 47.0833333,6.85454545 C50,7.64242424 52.8333333,9.06060606 55.3333333,11.030303 C52.5,7.87878788 48.5833333,5.59393939 44.5833333,4.49090909 C39.3333333,3.07272727 34.25,0.472727273 29.25,0.157575758 C6.41666667,-1.1030303 0.25,13.3939394 0.25,24.5818182 C0.25,31.4363636 3.66666667,37.6606061 9.08333333,42.1515152 C5.16666667,37.9757576 2.75,32.6969697 2.75,26.9454545 C2.83333333,15.6787879 8.91666667,1.18181818 31.75,2.52121212 L31.75,2.52121212 Z" opacity="0.2" fill="#F9FAFA"></path>
                        <path d="M52.8333333,8.58787879 C55.9166667,12.0545455 57.75,16.7030303 57,22.2181818 C55.1666667,35.8484848 43.8333333,47.1151515 27.6666667,47.1151515 C19.5833333,47.1151515 12.0833333,44.2787879 6.66666667,39.7878788 C12.1666667,45.6969697 20.75,49.4787879 30.1666667,49.4787879 C46.3333333,49.4787879 57.6666667,38.2121212 59.5,24.5818182 C60.4166667,17.7272727 57.4166667,12.2121212 52.8333333,8.58787879 L52.8333333,8.58787879 Z" opacity="0.1" fill="#050606"></path>
                    </g>
                    <path d="M9.58333333,11.8181818 C8.91666667,12.4484848 9.66666667,13.7090909 10.5,13.3151515 C19.9166667,9.2969697 29,8.27272727 42.5833333,11.1090909 C54.0833333,13.4727273 35.4166667,4.56969697 23.5,5.27878788 C17,5.67272727 12.3333333,9.06060606 9.58333333,11.8181818 L9.58333333,11.8181818 Z" opacity="0.5" fill="#F9FAFA"></path>
                    <path d="M20.3333333,6.06666667 C20.3333333,6.06666667 24.5833333,7.01212121 27.1666667,11.1090909 C29.75,15.2060606 29.5833333,10.4 29.5833333,10.4 C29.5833333,10.4 24.4166667,5.43636364 20.3333333,6.06666667 L20.3333333,6.06666667 Z" opacity="0.2" fill="#050606"></path>
                    <path d="M39.5,12.0545455 C34.3333333,12.1333333 31.8333333,12.0545455 31.8333333,12.0545455 L31.1666667,13 C30.6666667,12.8424242 28.5,12.1333333 27.4166667,13.0787879 C27.3333333,13.1575758 27.3333333,13.1575758 27.25,13.2363636 L25.5833333,11.8181818 L18.8333333,12.369697 C18.8333333,12.369697 15.8333333,13.1575758 14.6666667,14.7333333 C14.6666667,14.7333333 16.9166667,13.7090909 19,13.630303 C20.6666667,13.5515152 25.0833333,13.630303 26.8333333,13.630303 C25.8333333,14.8121212 25.0833333,16.7818182 25.0833333,16.7818182 C25.4166667,16.4666667 29.75,13.9454545 30.9166667,13.3151515 C30.9166667,13.3151515 32.8333333,14.2606061 34.75,14.0242424 C36.5833333,13.7878788 40.5833333,12.7636364 42.5833333,12.8424242 C44.5833333,12.8424242 45.25,12.9212121 46.3333333,13.3151515 C46.3333333,13.1575758 44.6666667,11.9757576 39.5,12.0545455 L39.5,12.0545455 Z" opacity="0.2" fill="#050606"></path>
                    <path d="M37.5,11.7393939 C37.5,11.7393939 39.25,10.0060606 40.0833333,9.2969697 C40.9166667,8.58787879 36.9166667,9.2969697 36.9166667,9.2969697 L32.9166667,10.7939394 L31.5833333,11.6606061 L37.5,11.6606061 L37.5,11.7393939 Z" opacity="0.2" fill="#050606"></path>
                    <path d="M11.5,23.2424242 L12.5,23.5575758 C16.5,24.8181818 20.75,24.9757576 24.8333333,23.9515152 L24.8333333,23.9515152 C27.8333333,23.2424242 31,23.0848485 34.0833333,23.4787879 L36.3333333,23.7939394 C39.6666667,24.2666667 43.1666667,23.9515152 46.3333333,22.769697 L46.75,22.6121212 C51.3333333,20.9575758 50.75,14.6545455 45.9166667,13.7090909 L45.9166667,13.7090909 C42.5,13.0787879 39,13.3151515 35.6666667,14.4181818 L35.6666667,14.4181818 C31.9166667,15.6787879 27.9166667,15.6787879 24.1666667,14.5757576 L24,14.4969697 C20.25,13.3939394 16.1666667,13.2363636 12.3333333,14.1030303 L11.8333333,14.1818182 C7.16666667,15.5212121 6.83333333,21.7454545 11.5,23.2424242 L11.5,23.2424242 Z" opacity="0.5" fill="#F9FAFA"></path>
                    <path d="M48.4166667,3.38787879 C48.4166667,3.38787879 48.1666667,10.6363636 34.3333333,11.5030303 C41.25,8.50909091 40.3333333,3.46666667 39.8333333,1.89090909 C39.8333333,1.81212121 39.5833333,1.81212121 39.6666667,1.96969697 C40.25,8.9030303 31.0833333,10.5575758 31.0833333,10.5575758 L30.6666667,10.4 C30.6666667,10.4 23.0833333,7.01212121 25.9166667,0.236363636 L25.6666667,0.236363636 C25.6666667,0.236363636 21.75,4.0969697 27.3333333,11.030303 L27.4166667,11.1090909 L25.6666667,11.1878788 C24.4166667,11.030303 18.3333333,10.0848485 15,3.7030303 C15,3.7030303 14.8333333,2.67878788 17.5833333,1.1030303 C17.5833333,1.1030303 13.9166667,2.67878788 14.0833333,3.7030303 C14.25,4.72727273 19.3333333,15.2060606 27.6666667,12.6848485 C28.75,12.8424242 29.8333333,13 30.5833333,13.0787879 C31.75,13.2363636 32.9166667,13.2363636 34.0833333,13.1575758 C38.4166667,12.7636364 48.8333333,10.9515152 48.4166667,3.38787879 L48.4166667,3.38787879 Z" fill="#425838"></path>
                    <g transform="translate(24.166667, 0.000000)" fill="#000000">
                        <path d="M1.5,0.157575758 C1.33333333,0.709090909 1.08333333,1.26060606 1,1.81212121 C0.833333333,2.36363636 0.833333333,2.91515152 0.833333333,3.46666667 C0.833333333,4.56969697 1.08333333,5.67272727 1.5,6.6969697 C2,7.72121212 2.66666667,8.58787879 3.58333333,9.37575758 C4.41666667,10.1636364 5.41666667,10.7939394 6.41666667,11.2666667 L6.33333333,11.2666667 C7.5,11.030303 8.75,10.6363636 9.83333333,10.1636364 C11,9.69090909 12,9.06060606 13,8.27272727 C13.9166667,7.48484848 14.6666667,6.53939394 15.1666667,5.43636364 C15.25,5.2 15.3333333,4.88484848 15.4166667,4.56969697 C15.5,4.25454545 15.5833333,4.01818182 15.5833333,3.7030303 L15.5833333,2.83636364 C15.5833333,2.52121212 15.5,2.20606061 15.5,1.96969697 C15.5,2.28484848 15.5833333,2.52121212 15.5833333,2.83636364 L15.5833333,3.7030303 C15.5833333,4.01818182 15.5,4.33333333 15.5,4.56969697 C15.4166667,4.88484848 15.3333333,5.12121212 15.25,5.43636364 C14.8333333,6.61818182 14.0833333,7.56363636 13.1666667,8.43030303 C12.25,9.2969697 11.1666667,9.92727273 10,10.4 C8.83333333,10.9515152 7.66666667,11.3454545 6.41666667,11.5818182 L6.33333333,11.5818182 L6.25,11.5818182 C5.66666667,11.3454545 5.16666667,11.030303 4.66666667,10.7151515 C4.16666667,10.4 3.66666667,10.0060606 3.25,9.61212121 C2.41666667,8.82424242 1.66666667,7.87878788 1.16666667,6.77575758 C0.666666667,5.67272727 0.5,4.56969697 0.583333333,3.38787879 C0.666666667,2.83636364 0.75,2.28484848 0.916666667,1.73333333 C1,1.18181818 1.25,0.709090909 1.5,0.157575758 L1.5,0.157575758 Z"></path>
                    </g>
                    <g transform="translate(14.166667, 1.575758)" fill="#000000">
                        <path d="M12.1666667,10.7939394 C8.58333333,10.7939394 5.91666667,9.13939394 4.08333333,7.40606061 C1.5,4.96363636 0.166666667,1.96969697 0.166666667,1.96969697 L0.0833333333,1.89090909 L1.25,0.315151515 L1.58333333,0.551515152 L0.583333333,1.96969697 C1.08333333,3.07272727 6.08333333,13.1575758 16.25,9.69090909 L16.9166667,9.45454545 L16.5833333,9.84848485 C17.5,10.1636364 22.5833333,10.7939394 27.1666667,9.21818182 C31.0833333,7.87878788 33.4166667,5.35757576 34,1.73333333 L34.4166667,1.81212121 C33.4166667,7.48484848 28.5833333,9.53333333 24.75,10.2424242 C20.9166667,10.9515152 16.9166667,10.5575758 16.25,10.0848485 C14.75,10.6363636 13.4166667,10.7939394 12.1666667,10.7939394 L12.1666667,10.7939394 Z"></path>
                    </g>
                    <path d="M28,12.2121212 C28,12.2121212 26.6666667,7.56363636 29.9166667,0.945454545 L32.9166667,1.1030303 C32.9166667,1.1030303 30,4.80606061 31.75,11.7393939 C31.75,11.8181818 30.1666667,13.3939394 28,12.2121212 L28,12.2121212 Z" fill="#425838"></path>
                    <g transform="translate(27.500000, 0.787879)" opacity="0.1">
                        <path d="M2.83333333,0.315151515 L2.41666667,0.236363636 C-0.833333333,6.85454545 0.5,11.5030303 0.5,11.5030303 C1.25,11.8969697 2,11.9757576 2.58333333,11.8969697 C2.25,11.8181818 1.83333333,11.7393939 1.33333333,11.5030303 C1.33333333,11.4242424 -0.333333333,6.85454545 2.83333333,0.315151515 L2.83333333,0.315151515 Z" fill="#F9FAFA"></path>
                        <path d="M5.41666667,0.393939394 L2.41666667,0.236363636 C2.41666667,0.236363636 2.41666667,0.236363636 2.41666667,0.315151515 L5.08333333,0.393939394 C5.08333333,0.393939394 1.66666667,4.17575758 3.41666667,11.1090909 C3.41666667,11.1090909 2.75,11.7393939 1.75,11.8969697 C3.25,12.1333333 4.25,11.1090909 4.25,11.1090909 C2.5,4.0969697 5.41666667,0.393939394 5.41666667,0.393939394 L5.41666667,0.393939394 Z" fill="#050606"></path>
                    </g>
                    <path d="M33,1.02424242 C33,1.41818182 32.3333333,1.73333333 31.5,1.73333333 C30.6666667,1.73333333 29.9166667,1.41818182 30,1.02424242 C30.0833333,0.63030303 30.6666667,0.315151515 31.5,0.315151515 C32.3333333,0.315151515 33,0.63030303 33,1.02424242 L33,1.02424242 Z" fill="#546948"></path>
                    <path d="M21.75,4.96363636 C21.75,4.96363636 20.6666667,15.2848485 31,13.1575758 C32.8333333,12.7636364 30.5,11.9757576 28.3333333,11.5030303 C25.6666667,10.8727273 22.75,10.3212121 21.75,4.96363636 L21.75,4.96363636 Z" fill="#3A4D31"></path>
                </g>
            </g>
        </g>
        <g id="1463603947_food-06" sketch:type="MSLayerGroup" transform="translate(29.000000, 59.000000)">
            <g id="Group" sketch:type="MSShapeGroup">
                <g id="Shape">
                    <path d="M65.3052632,17.3360656 L65.3052632,17.3360656 C65.9131579,20.0327869 65.7394737,22.8065574 64.6973684,25.4262295 L61.4842105,33.5163934 C60.8763158,35.1344262 59.4868421,36.4442623 57.8368421,37.2147541 L57.8368421,37.2147541 C53.5815789,39.1409836 48.9789474,40.2967213 44.2026316,40.5278689 L39.3394737,40.7590164 C34.3894737,40.9901639 29.4394737,40.6819672 24.6631579,39.757377 L23.7078947,39.6032787 C17.7157895,38.447541 12.4184211,35.442623 8.68421053,31.204918 L7.29473684,29.5868852 C4.95,26.9672131 3.21315789,24.0393443 1.99736842,20.8032787 L1.99736842,20.8032787 C1.47631579,19.4163934 1.30263158,17.952459 1.47631579,16.5655738 L1.47631579,16.4114754 C1.56315789,15.4868852 1.47631579,14.6393443 1.30263158,13.7147541 L0.868421053,12.7131148 C0.434210526,11.7114754 0.521052632,10.6327869 1.12894737,9.70819672 L1.56315789,9.09180328 C1.91052632,8.55245902 2.25789474,7.93606557 2.51842105,7.31967213 L3.47368421,5.0852459 C4.42894737,3.00491803 6.68684211,1.61803279 9.20526316,1.61803279 L16.5,1.61803279 C18.0631579,1.61803279 19.6263158,1.46393443 21.1894737,1.1557377 L21.1894737,1.1557377 C25.7921053,0.231147541 30.5684211,-0.0770491803 35.2578947,0.385245902 L35.2578947,0.385245902 C40.9026316,0.924590164 46.4605263,2.23442623 51.5842105,4.3147541 L51.5842105,4.3147541 C54.3631579,5.4704918 56.9684211,6.85737705 59.3131579,8.55245902 L59.3131579,8.55245902 C60.1815789,9.16885246 61.1368421,9.7852459 62.1789474,10.3245902 L62.1789474,10.3245902 C63.9157895,11.2491803 65.0447368,12.9442623 65.0447368,14.7934426 L65.0447368,14.7934426 C65.0447368,15.6409836 65.1315789,16.4885246 65.3052632,17.3360656 L65.3052632,17.3360656 Z" fill="#DF5F4F"></path>
                    <path d="M10.0736842,24.1934426 L10.0736842,24.0393443 C10.1605263,23.1147541 10.0736842,22.2672131 9.9,21.342623 L9.55263158,20.4180328 C9.11842105,19.4163934 9.20526316,18.3377049 9.81315789,17.4131148 L10.2473684,16.7967213 C10.5947368,16.257377 10.9421053,15.6409836 11.2026316,15.0245902 L12.1578947,12.7901639 C13.1131579,10.7098361 15.3710526,9.32295082 17.8894737,9.32295082 L25.1842105,9.32295082 C26.7473684,9.32295082 28.3105263,9.16885246 29.8736842,8.86065574 C34.4763158,7.93606557 39.2526316,7.62786885 43.9421053,8.09016393 C49.5868421,8.6295082 55.1447368,9.93934426 60.2684211,12.0196721 C61.9184211,12.7131148 63.4815789,13.4836066 65.0447368,14.3311475 C64.8710526,12.6360656 63.8289474,11.1721311 62.1789474,10.3245902 L62.1789474,10.3245902 C61.2236842,9.7852459 60.2684211,9.24590164 59.3131579,8.55245902 L59.3131579,8.55245902 C56.9684211,6.85737705 54.3631579,5.39344262 51.5842105,4.3147541 C46.3736842,2.23442623 40.9026316,0.924590164 35.2578947,0.385245902 C30.5684211,-0.0770491803 25.7921053,0.231147541 21.1894737,1.1557377 C19.6263158,1.46393443 18.0631579,1.61803279 16.5,1.61803279 L9.20526316,1.61803279 C6.68684211,1.61803279 4.42894737,3.00491803 3.47368421,5.0852459 L2.51842105,7.31967213 C2.25789474,7.93606557 1.91052632,8.47540984 1.56315789,9.09180328 L1.12894737,9.70819672 C0.521052632,10.6327869 0.434210526,11.7114754 0.868421053,12.7131148 L1.30263158,13.6377049 C1.56315789,14.4852459 1.56315789,15.4098361 1.47631579,16.3344262 L1.47631579,16.4885246 C1.30263158,17.952459 1.47631579,19.3393443 1.99736842,20.7262295 C3.21315789,23.8852459 4.95,26.8131148 7.29473684,29.5098361 L8.68421053,31.1278689 C10.5078947,33.2081967 12.7657895,35.057377 15.2842105,36.4442623 C13.2868421,34.0557377 11.7236842,31.3590164 10.6815789,28.5081967 C10.1605263,27.0442623 9.98684211,25.657377 10.0736842,24.1934426 L10.0736842,24.1934426 Z" opacity="0.2" fill="#FDFDFD"></path>
                    <path d="M8.68421053,31.1278689 C12.4184211,35.3655738 17.8026316,38.3704918 23.7078947,39.5262295 L24.6631579,39.6803279 C29.4394737,40.604918 34.3894737,40.9901639 39.3394737,40.6819672 L44.2026316,40.4508197 C48.9789474,40.2196721 53.5815789,39.0639344 57.8368421,37.1377049 C59.1394737,36.5213115 60.2684211,35.5967213 60.9631579,34.4409836 L60.9631579,34.4409836 L59.4868421,39.295082 C59.4868421,39.295082 57.8368421,43.2245902 53.7552632,44.1491803 C49.6736842,45.0737705 36.8210526,49.3885246 18.2368421,44.6885246 C18.2368421,44.6885246 10.5078947,42.3770492 8.25,36.8295082 C5.99210526,31.2819672 6.42631579,29.6639344 3.38684211,23.7311475 L3.38684211,23.7311475 C4.42894737,25.7344262 5.73157895,27.7377049 7.29473684,29.5098361 L8.68421053,31.1278689 L8.68421053,31.1278689 Z" fill="#E3A795"></path>
                    <g transform="translate(2.605263, 23.114754)">
                        <path d="M8.16315789,13.7918033 C7.20789474,11.4803279 6.68684211,9.7852459 6.25263158,8.2442623 C6.16578947,8.16721311 6.07894737,8.09016393 5.99210526,8.01311475 L4.60263158,6.39508197 C3.03947368,4.62295082 1.73684211,2.69672131 0.694736842,0.616393443 L0.694736842,0.616393443 C3.73421053,6.54918033 3.3,8.2442623 5.55789474,13.7147541 C7.81578947,19.1852459 15.6315789,21.5737705 15.6315789,21.5737705 C22.4921053,23.2688525 28.5710526,23.8081967 33.6947368,23.6540984 C29.0921053,23.6540984 23.9684211,23.0377049 18.2368421,21.5737705 C18.2368421,21.5737705 10.5078947,19.2622951 8.16315789,13.7918033 L8.16315789,13.7918033 Z" opacity="0.2" fill="#FDFDFD"></path>
                        <path d="M55.2315789,14.1 C55.1447368,14.1770492 55.0578947,14.1770492 54.8842105,14.2540984 L54.2763158,16.1803279 C54.2763158,16.1803279 52.6263158,20.1098361 48.5447368,21.0344262 C45.9394737,21.5737705 39.8605263,23.5 31.0894737,23.7311475 C41.3368421,23.9622951 48.3710526,21.6508197 51.15,21.0344262 C55.2315789,20.1098361 56.8815789,16.1803279 56.8815789,16.1803279 L58.3578947,11.3262295 C57.6631579,12.5590164 56.5342105,13.4836066 55.2315789,14.1 L55.2315789,14.1 Z" opacity="0.15" fill="#050606"></path>
                    </g>
                    <path d="M48.3710526,24.4245902 C48.8921053,24.4245902 49.3263158,24.1934426 49.5,23.8852459 C49.6736842,23.6540984 49.6736842,23.3459016 49.5,23.0377049 C49.3263158,22.7295082 49.0657895,22.4983607 48.7184211,22.3442623 C48.4578947,22.2672131 48.1973684,22.1901639 47.9368421,22.1901639 C47.4157895,22.1901639 46.9815789,22.4213115 46.8078947,22.7295082 C46.6342105,22.9606557 46.6342105,23.2688525 46.8078947,23.5770492 C46.9815789,23.8852459 47.2421053,24.1163934 47.5894737,24.2704918 C47.85,24.347541 48.1105263,24.4245902 48.3710526,24.4245902 L48.3710526,24.4245902 Z" fill="#F8F9F9"></path>
                    <path d="M0.868421053,12.7131148 L1.30263158,13.6377049 C1.56315789,14.4852459 1.56315789,15.4098361 1.47631579,16.3344262 L1.47631579,16.4885246 C1.30263158,17.952459 1.47631579,19.3393443 1.99736842,20.7262295 C3.21315789,23.8852459 4.95,26.8131148 7.29473684,29.5098361 L8.68421053,31.1278689 C12.4184211,35.3655738 17.8026316,38.3704918 23.7078947,39.5262295 L24.6631579,39.6803279 C29.4394737,40.604918 34.3894737,40.9901639 39.3394737,40.6819672 L44.2026316,40.4508197 C48.9789474,40.2196721 53.5815789,39.0639344 57.8368421,37.1377049 C59.5736842,36.3672131 60.8763158,35.057377 61.4842105,33.4393443 L64.6973684,25.3491803 C65.7394737,22.7295082 65.9131579,19.9557377 65.3052632,17.2590164 C65.1315789,16.4885246 65.0447368,15.6409836 65.0447368,14.7934426 C65.0447368,12.9442623 63.9157895,11.2491803 62.1789474,10.3245902 L62.1789474,10.3245902 C61.2236842,9.7852459 60.2684211,9.24590164 59.3131579,8.55245902 L59.3131579,8.55245902 C56.9684211,6.85737705 54.3631579,5.39344262 51.5842105,4.3147541 C46.3736842,2.23442623 40.9026316,0.924590164 35.2578947,0.385245902 C30.5684211,-0.0770491803 25.7921053,0.231147541 21.1894737,1.1557377 C19.6263158,1.46393443 18.0631579,1.61803279 16.5,1.61803279 L9.20526316,1.61803279 C6.68684211,1.61803279 4.42894737,3.00491803 3.47368421,5.0852459 L2.51842105,7.31967213 C2.25789474,7.93606557 1.91052632,8.47540984 1.56315789,9.09180328 L1.12894737,9.70819672 C0.434210526,10.6327869 0.347368421,11.7114754 0.868421053,12.7131148 L0.868421053,12.7131148 Z M64.6105263,17.3360656 C63.8289474,20.0327869 64.0026316,21.5737705 63.9157895,23.1147541 C63.9157895,23.8081967 63.2210526,24.4245902 62.3526316,24.347541 L61.6578947,24.347541 C61.4842105,24.347541 61.3105263,24.4245902 61.05,24.4245902 C59.9210526,24.5786885 57.75,24.8868852 56.1868421,24.5786885 C55.3184211,24.4245902 54.6236842,24.2704918 54.1026316,24.0393443 C53.6684211,23.8852459 53.4078947,23.5 53.3210526,23.0377049 C53.1473684,21.2655738 51.7578947,19.4163934 49.5,18.4918033 C46.3736842,17.104918 43.2473684,18.0295082 42.0315789,20.2639344 C41.9447368,20.4180328 41.8578947,20.5721311 41.5973684,20.6491803 C41.4236842,20.8032787 41.0763158,20.7262295 40.9026316,20.5721311 C39.9473684,19.647541 38.8184211,18.6459016 37.5157895,18.1836066 C36.0394737,17.5672131 34.9973684,15.4868852 34.0421053,13.6377049 C33.4342105,12.404918 32.8263158,11.2491803 32.2184211,10.5557377 C31.6105263,9.93934426 31.0026316,9.16885246 30.4815789,8.39836066 C29.3526316,6.93442623 28.3973684,5.62459016 27.4421053,5.31639344 C26.5736842,5.0852459 25.7052632,3.62131148 25.4447368,2.23442623 C25.3578947,1.69508197 25.7921053,1.1557377 26.4,1.07868852 C27.7894737,0.924590164 29.1789474,0.847540984 30.6552632,0.847540984 C32.1315789,0.847540984 33.5210526,0.924590164 34.9973684,1.07868852 C41.8578947,1.69508197 48.4578947,3.5442623 54.5368421,6.47213115 C56.6210526,7.47377049 57.8368421,9.32295082 58.8789474,11.3262295 C59.2263158,12.0196721 60.8763158,10.5557377 61.7447368,11.0180328 C63.3078947,11.8655738 64.2631579,13.3295082 64.2631579,14.947541 C64.2631579,15.7180328 64.7842105,16.5655738 64.6105263,17.3360656 L64.6105263,17.3360656 Z M6.07894737,26.8901639 C5.55789474,26.1967213 5.90526316,25.5032787 6.86052632,25.4262295 C8.07631579,25.2721311 9.72631579,24.6557377 10.3342105,24.4245902 C11.2026316,24.1163934 13.2868421,24.1163934 15.2842105,24.1163934 C16.6736842,24.1163934 18.15,24.1934426 19.1921053,24.0393443 C20.8421053,23.8852459 22.3184211,22.9606557 23.7078947,22.1131148 C24.6631579,21.5737705 25.4447368,20.957377 26.1394737,20.8032787 C26.9210526,20.6491803 27.8763158,20.7262295 29.0052632,20.8032787 C30.3078947,20.957377 31.8710526,21.0344262 33.5210526,20.8032787 C34.9973684,20.5721311 36.0394737,20.1098361 36.8210526,19.647541 C37.5157895,19.1852459 38.3842105,19.1852459 39.0789474,19.647541 C39.7736842,20.1868852 40.3815789,20.7262295 40.9026316,21.2655738 C41.1631579,21.5737705 41.4236842,21.9590164 41.4236842,22.3442623 C41.6842105,24.0393443 43.0736842,25.8114754 45.2447368,26.7360656 C48.3710526,28.1229508 51.4105263,27.2754098 52.7131579,25.0409836 C52.8,24.8868852 52.8,24.7327869 53.1473684,24.5786885 C53.4078947,24.4245902 53.6684211,24.4245902 53.9289474,24.5786885 C54.6236842,24.8868852 55.3184211,25.0409836 56.1868421,25.195082 C56.7078947,25.2721311 57.2289474,25.3491803 57.8368421,25.3491803 C59.1394737,25.3491803 60.4421053,25.1180328 61.3105263,25.0409836 C61.5710526,25.0409836 61.7447368,24.9639344 61.9184211,24.9639344 C62.3526316,24.8868852 62.6131579,24.8868852 63.1342105,25.0409836 C63.1342105,25.1180328 63.6552632,25.195082 63.4815789,25.657377 L61.1368421,32.9770492 C60.5289474,34.3639344 58.4447368,36.4442623 56.6210526,37.3688525 C52.2789474,39.3721311 52.1052632,38.9098361 46.3736842,39.0639344 C45.9394737,39.0639344 45.5052632,39.1409836 45.0710526,39.1409836 L41.8578947,39.4491803 C40.6421053,39.6032787 39.3394737,39.6803279 38.1236842,39.6803279 C34.65,39.6803279 27.9631579,39.6032787 25.0973684,39.0639344 L24.1421053,38.9098361 C18.3236842,37.7540984 13.2,34.9032787 9.46578947,30.742623 L7.81578947,29.1245902 C7.20789474,28.3540984 6.6,27.6606557 6.07894737,26.8901639 L6.07894737,26.8901639 Z M2.95263158,18.8770492 C3.47368421,17.952459 4.16842105,17.2590164 4.95,16.5655738 L4.95,16.5655738 C5.55789474,15.9491803 6.42631579,15.5639344 7.38157895,15.7180328 C8.25,15.795082 9.03157895,16.1803279 9.72631579,16.7196721 C10.1605263,17.104918 10.6815789,17.5672131 11.2894737,18.1065574 C12.2447368,19.1081967 12.7657895,19.1852459 13.5473684,19.1852459 C14.0684211,19.1852459 14.6763158,19.1852459 15.8052632,19.5704918 C16.5868421,19.8786885 17.1947368,20.0327869 17.8026316,20.2639344 C18.7578947,20.5721311 19.5394737,20.8032787 20.4947368,21.342623 C21.2763158,21.804918 21.1894737,22.8836066 20.3210526,23.1918033 C19.8868421,23.3459016 19.4526316,23.4229508 19.1052632,23.5 C18.0631579,23.5770492 16.6736842,23.5770492 15.2842105,23.5770492 C13.1131579,23.5770492 11.0289474,23.5 9.98684211,23.8852459 C8.25,24.5786885 5.47105263,25.0409836 4.60263158,24.5786885 L4.60263158,24.5786885 C3.90789474,23.3459016 3.21315789,22.0360656 2.77894737,20.6491803 C2.34473684,19.7245902 2.69210526,19.4163934 2.95263158,18.8770492 L2.95263158,18.8770492 Z M1.73684211,10.0934426 L2.17105263,9.47704918 C2.60526316,8.86065574 2.95263158,8.2442623 3.21315789,7.62786885 L4.16842105,5.39344262 C4.95,3.5442623 6.94736842,2.38852459 9.20526316,2.38852459 L16.5,2.38852459 C18.2368421,2.38852459 19.8868421,2.15737705 21.6236842,1.84918033 C21.9710526,1.77213115 22.3184211,1.69508197 22.7526316,1.61803279 C23.4473684,1.46393443 24.1421053,1.92622951 24.2289474,2.54262295 C24.4894737,4.00655738 25.6184211,5.16229508 26.6605263,5.8557377 C27.5289474,6.47213115 29.2657895,7.39672131 30.2210526,8.70655738 C30.8289474,9.47704918 31.4368421,10.3245902 32.0447368,10.9409836 C32.6526316,11.557377 33.1736842,12.7131148 33.7815789,13.8688525 C34.3894737,15.0245902 34.9973684,16.257377 35.6921053,17.1819672 C36.4736842,18.1836066 35.9526316,19.4934426 34.7368421,19.8786885 C34.3894737,19.9557377 33.9552632,20.1098361 33.5210526,20.1868852 C31.9578947,20.4180328 30.4815789,20.3409836 29.1789474,20.1868852 C27.9631579,20.1098361 27.0078947,19.9557377 26.0526316,20.1868852 C25.1842105,20.3409836 24.2289474,20.957377 23.2736842,21.5737705 C23.0131579,21.7278689 22.5789474,21.7278689 22.3184211,21.5737705 C20.7552632,20.3409836 19.6263158,20.0327869 18.2368421,19.5704918 C17.6289474,19.4163934 17.0210526,19.1852459 16.3263158,18.8770492 C15.0236842,18.4147541 14.3289474,18.4147541 13.8078947,18.4147541 C13.2,18.4147541 12.9394737,18.4147541 12.1578947,17.5672131 C10.5078947,15.795082 8.94473684,14.947541 8.85789474,14.947541 L8.77105263,14.947541 C7.38157895,14.4081967 5.81842105,14.3311475 4.68947368,14.4852459 C3.90789474,14.5622951 3.12631579,14.4081967 2.51842105,13.9459016 C2.34473684,13.7918033 2.17105263,13.6377049 2.17105263,13.4836066 L2.17105263,13.4065574 L1.73684211,12.4819672 C1.12894737,11.7114754 1.21578947,10.7868852 1.73684211,10.0934426 L1.73684211,10.0934426 Z" fill="#F8F9F9"></path>
                    <path d="M48.2842105,26.7360656 C50.1078947,26.7360656 51.3236842,25.9655738 52.0184211,24.6557377 C52.5394737,23.7311475 52.8868421,22.7295082 52.2789474,21.6508197 C51.6710526,20.5721311 50.6289474,19.647541 49.2394737,19.0311475 C48.2842105,18.6459016 47.3289474,18.4147541 46.3736842,18.4147541 C44.55,18.4147541 43.4210526,19.1852459 42.8131579,20.495082 C42.2921053,21.4196721 41.8578947,22.4213115 42.3789474,23.5 C42.9868421,24.5786885 44.0289474,25.5032787 45.4184211,26.1196721 C46.3736842,26.5819672 47.3289474,26.7360656 48.2842105,26.7360656 L48.2842105,26.7360656 Z" fill="#934C4B"></path>
                    <path d="M48.4578947,25.195082 C48.8921053,25.195082 49.2394737,24.9639344 49.4131579,24.6557377 C49.5,24.4245902 49.5868421,24.1934426 49.5,23.8852459 C49.3263158,23.5770492 49.0657895,23.3459016 48.7184211,23.1918033 C48.4578947,23.1147541 48.1973684,23.0377049 48.0236842,23.0377049 C47.5894737,23.0377049 47.3289474,23.2688525 47.1552632,23.5770492 C47.0684211,23.8081967 46.8947368,24.0393443 47.0684211,24.347541 C47.2421053,24.6557377 47.5026316,24.8868852 47.85,25.0409836 C48.0236842,25.1180328 48.2842105,25.195082 48.4578947,25.195082 L48.4578947,25.195082 Z" fill="#F8F9F9"></path>
                </g>
                <g transform="translate(3.473684, 3.852459)" id="Shape" fill="#573824">
                    <path d="M12.5921053,0.154098361 C12.5921053,0.154098361 13.0263158,0.616393443 13.6342105,1.46393443 C14.2421053,2.31147541 15.1973684,3.5442623 16.1526316,5.0852459 C16.6736842,5.8557377 17.1947368,6.62622951 17.7157895,7.55081967 C18.2368421,8.39836066 18.8447368,9.32295082 19.4526316,10.3245902 C20.0605263,11.3262295 20.6684211,12.2508197 21.1894737,13.3295082 C21.7973684,14.3311475 22.4052632,15.4098361 22.9263158,16.4114754 C23.5342105,17.4901639 24.0552632,18.4918033 24.6631579,19.5704918 C25.1842105,20.5721311 25.7052632,21.6508197 26.2263158,22.652459 C27.2684211,24.6557377 28.1368421,26.5819672 28.8315789,28.2 C29.5263158,29.8180328 30.1342105,31.204918 30.4815789,32.2065574 C30.8289474,33.2081967 31.0026316,33.747541 31.0026316,33.747541 C31.0026316,33.747541 30.5684211,33.2852459 29.9605263,32.4377049 C29.3526316,31.5901639 28.3973684,30.357377 27.4421053,28.8163934 C26.4,27.2754098 25.2710526,25.5032787 24.1421053,23.5770492 C23.5342105,22.5754098 22.9263158,21.6508197 22.4052632,20.5721311 C21.7973684,19.5704918 21.2763158,18.4918033 20.6684211,17.4131148 C20.0605263,16.3344262 19.5394737,15.3327869 19.0184211,14.2540984 C18.4105263,13.252459 17.9763158,12.1737705 17.4552632,11.1721311 C16.9342105,10.1704918 16.5,9.16885246 16.0657895,8.2442623 C15.6315789,7.31967213 15.1973684,6.39508197 14.85,5.62459016 C14.1552632,4.00655738 13.5473684,2.61967213 13.2,1.61803279 C12.7657895,0.693442623 12.5921053,0.154098361 12.5921053,0.154098361 L12.5921053,0.154098361 Z"></path>
                    <path d="M25.6184211,0.154098361 C25.6184211,0.154098361 26.0526316,0.616393443 26.6605263,1.46393443 C27.2684211,2.31147541 28.2236842,3.5442623 29.1789474,5.0852459 C29.7,5.8557377 30.2210526,6.62622951 30.7421053,7.55081967 C31.2631579,8.39836066 31.8710526,9.32295082 32.4789474,10.3245902 C33.0868421,11.3262295 33.6947368,12.2508197 34.2157895,13.3295082 C34.8236842,14.3311475 35.4315789,15.4098361 35.9526316,16.4114754 C36.5605263,17.4901639 37.0815789,18.4918033 37.6894737,19.5704918 C38.2105263,20.5721311 38.7315789,21.6508197 39.2526316,22.652459 C40.2947368,24.6557377 41.1631579,26.5819672 41.8578947,28.2 C42.5526316,29.8180328 43.1605263,31.204918 43.5078947,32.2065574 C43.8552632,33.2081967 44.0289474,33.747541 44.0289474,33.747541 C44.0289474,33.747541 43.5947368,33.2852459 42.9868421,32.4377049 C42.3789474,31.5901639 41.4236842,30.357377 40.4684211,28.8163934 C39.4263158,27.2754098 38.2973684,25.5032787 37.1684211,23.5770492 C36.5605263,22.5754098 35.9526316,21.6508197 35.4315789,20.5721311 C34.8236842,19.5704918 34.3026316,18.4918033 33.6947368,17.4131148 C33.0868421,16.3344262 32.5657895,15.3327869 32.0447368,14.2540984 C31.4368421,13.252459 31.0026316,12.1737705 30.4815789,11.1721311 C29.9605263,10.1704918 29.5263158,9.16885246 29.0921053,8.2442623 C28.6578947,7.31967213 28.2236842,6.39508197 27.8763158,5.62459016 C27.1815789,4.00655738 26.5736842,2.61967213 26.2263158,1.61803279 C25.7921053,0.693442623 25.6184211,0.154098361 25.6184211,0.154098361 L25.6184211,0.154098361 Z"></path>
                    <path d="M42.9,2.15737705 C42.9,2.15737705 43.1605263,2.46557377 43.6815789,3.08196721 C44.2026316,3.69836066 44.8105263,4.54590164 45.5921053,5.54754098 C47.0684211,7.62786885 48.8921053,10.4786885 50.5421053,13.4065574 C52.1052632,16.3344262 53.5815789,19.4163934 54.45,21.7278689 C54.8842105,22.8836066 55.2315789,23.8852459 55.4921053,24.5786885 C55.7526316,25.2721311 55.8394737,25.657377 55.8394737,25.657377 C55.8394737,25.657377 55.5789474,25.3491803 55.0578947,24.7327869 C54.5368421,24.1163934 53.9289474,23.2688525 53.1473684,22.2672131 C51.6710526,20.1868852 49.8473684,17.3360656 48.1973684,14.4081967 C46.5473684,11.557377 45.1578947,8.47540984 44.2026316,6.16393443 C43.7684211,5.00819672 43.4210526,4.00655738 43.1605263,3.31311475 C42.9868421,2.61967213 42.9,2.15737705 42.9,2.15737705 L42.9,2.15737705 Z"></path>
                    <path d="M0.694736842,4.62295082 C0.694736842,4.62295082 1.04210526,5.00819672 1.56315789,5.70163934 C2.08421053,6.39508197 2.86578947,7.47377049 3.73421053,8.70655738 C4.60263158,9.93934426 5.55789474,11.4803279 6.6,13.0983607 C7.55526316,14.7163934 8.59736842,16.4885246 9.55263158,18.2606557 C10.5078947,20.0327869 11.4631579,21.804918 12.2447368,23.5 C13.0263158,25.195082 13.8078947,26.8131148 14.3289474,28.2 C14.9368421,29.5868852 15.3710526,30.742623 15.6315789,31.5901639 C15.8921053,32.4377049 16.0657895,32.9 16.0657895,32.9 C16.0657895,32.9 15.7184211,32.5147541 15.1973684,31.8213115 C14.6763158,31.1278689 13.8947368,30.0491803 13.0263158,28.8163934 C12.1578947,27.5836066 11.2026316,26.042623 10.1605263,24.4245902 C9.20526316,22.8065574 8.16315789,21.0344262 7.20789474,19.2622951 C6.25263158,17.4901639 5.29736842,15.7180328 4.51578947,14.0229508 C3.73421053,12.3278689 2.95263158,10.7098361 2.43157895,9.32295082 C1.82368421,7.93606557 1.38947368,6.78032787 1.12894737,5.93278689 C0.868421053,5.0852459 0.694736842,4.62295082 0.694736842,4.62295082 L0.694736842,4.62295082 Z"></path>
                </g>
            </g>
        </g>
    </g>
</svg>