<?xml version="1.0" encoding="UTF-8" standalone="no"?>
<svg width="85px" height="85px" viewBox="0 0 85 85" version="1.1" xmlns="http://www.w3.org/2000/svg" xmlns:xlink="http://www.w3.org/1999/xlink" xmlns:sketch="http://www.bohemiancoding.com/sketch/ns">
    <!-- Generator: Sketch 3.3.3 (12081) - http://www.bohemiancoding.com/sketch -->
    <title>Slice 1</title>
    <desc>Created with Sketch.</desc>
    <defs></defs>
    <g id="Page-1" stroke="none" stroke-width="1" fill="none" fill-rule="evenodd" sketch:type="MSPage">
        <g id="freetime_off" sketch:type="MSLayerGroup">
            <g id="Page-1" sketch:type="MSShapeGroup">
                <g id="freetime_on1">
                    <g id="Page-1">
                        <g id="freetime_on">
                            <g id="Page-1">
                                <path d="M42.5,85 C65.9721019,85 85,65.9721019 85,42.5 C85,19.0278981 65.9721019,0 42.5,0 C19.0278981,0 0,19.0278981 0,42.5 C0,65.9721019 19.0278981,85 42.5,85 L42.5,85 L42.5,85 Z" id="Oval-2" fill="#313131"></path>
                                <path d="M30.5631233,13.0976986 C26.6275616,14.6933151 23.0961644,17.0393973 20.068,20.0666849 C17.0389589,23.0948493 14.6955068,26.6271233 13.0990137,30.5618082 C11.5577534,34.3632329 10.775726,38.3803288 10.775726,42.5008767 C10.775726,46.6205479 11.5577534,50.6376438 13.0990137,54.4373151 C14.6955068,58.3728767 17.0398356,61.9051507 20.068,64.9324384 C23.0961644,67.9614795 26.6266849,70.3058082 30.5631233,71.9014247 C34.3645479,73.4444384 38.3807671,74.2238356 42.5013151,74.2238356 C46.621863,74.2238356 50.6372055,73.4418082 54.4386301,71.9014247 C58.3733151,70.3058082 61.9064658,67.9614795 64.9337534,64.9324384 C67.9627945,61.9051507 70.3071233,58.3746301 71.9027397,54.4373151 C73.444,50.6376438 74.224274,46.6205479 74.224274,42.5008767 C74.224274,38.3803288 73.4431233,34.3632329 71.9027397,30.5618082 C70.3071233,26.6271233 67.9610411,23.0939726 64.9337534,20.0666849 C61.9064658,17.0393973 58.3768219,14.6933151 54.4386301,13.0976986 C50.6372055,11.5573151 46.621863,10.7761644 42.5013151,10.7761644 C38.3807671,10.7761644 34.3645479,11.5573151 30.5631233,13.0976986 L30.5631233,13.0976986 L30.5631233,13.0976986 Z M18.7047123,55.8558356 C17.1766027,54.8967123 15.7686027,53.7920548 14.5219178,52.4910137 C12.6176986,47.1325479 12.2950685,41.3313425 13.5566575,35.8247123 C14.1501918,34.6543014 14.8252603,33.5303562 15.5888767,32.4537534 C15.8247123,32.1214795 16.0430137,31.7751781 16.2955068,31.4525479 L23.4547397,35.6888219 L23.4547397,35.8685479 C23.4363288,39.7190685 23.8273425,43.5415342 24.605863,47.3087671 C24.6084932,47.3263014 24.6111233,47.3359452 24.6146301,47.351726 L19.062411,56.0574795 C18.9414247,55.9961096 18.8213151,55.9294795 18.7047123,55.8558356 L18.7047123,55.8558356 L18.7047123,55.8558356 Z M39.9912877,70.5732055 C41.2265753,71.2035616 42.4969315,71.735726 43.8023562,72.1688219 C38.2571507,72.4099178 32.6567123,71.1106301 27.7059178,68.2700822 L39.7072329,70.4083836 C39.7992877,70.4671233 39.8930959,70.5232329 39.9912877,70.5732055 L39.9912877,70.5732055 L39.9912877,70.5732055 Z M39.9474521,68.4068493 L25.7850411,65.8827945 C24.1280548,63.8707397 22.6376438,61.7420822 21.3567671,59.4670137 C21.0306301,58.8883836 20.6667945,58.326411 20.3906301,57.7223562 L25.937589,49.0253699 C26.0603288,49.0560548 26.1970959,49.0884932 26.352274,49.1296986 C29.8223014,50.058137 33.3536986,50.7183014 36.9096438,51.2355616 C37.1174247,51.2644932 37.2910137,51.2899178 37.4391781,51.3056986 L44.0881644,62.8020274 C42.934411,64.4239452 41.7675068,66.0370959 40.5751781,67.6327123 C40.3770411,67.8983562 40.1666301,68.1534795 39.9474521,68.4068493 L39.9474521,68.4068493 L39.9474521,68.4068493 Z M63.5099726,63.5095342 C62.3825205,64.637863 61.1858082,65.6548493 59.9329863,66.5613699 C59.7252055,64.9008767 59.3666301,63.2736986 58.8607671,61.6842192 L65.9551233,48.4493699 C67.9093151,47.5595068 69.7942466,46.550411 71.5441644,45.2993425 C71.7729863,45.1371507 71.9632329,44.9556712 72.1105205,44.7575342 C71.5967671,51.5967671 68.7299178,58.2904658 63.5099726,63.5095342 L63.5099726,63.5095342 L63.5099726,63.5095342 Z M63.1952329,46.3452603 C63.4591233,46.8484932 63.7195068,47.3569863 63.9807671,47.8724932 L57.1283836,60.6549589 C57.0889315,60.663726 57.0512329,60.6724932 57.0117808,60.6777534 C53.3076712,61.3694795 49.5737534,61.7376986 45.808274,61.7552329 L38.9699178,49.9310137 C40.0342466,47.9549041 41.0889315,45.9709041 42.1348493,43.9860274 C42.8449863,42.6393973 43.5428493,41.284 44.2398356,39.9294795 L58.3926027,38.4758904 C60.125863,41.0183562 61.7679452,43.6151781 63.1952329,46.3452603 L63.1952329,46.3452603 L63.1952329,46.3452603 Z M60.324,31.1833973 C59.6524384,32.9569863 58.9335342,34.7121644 58.2190137,36.4708493 L44.4318356,37.8867397 C44.2670137,37.6693151 44.0960548,37.4553973 43.9163288,37.2511233 C42.288274,35.4073973 40.6496986,33.5750685 39.0137534,31.7374795 C39.0286575,31.7190685 39.0435616,31.7050411 39.0584658,31.6883836 C38.3983014,31.0290959 37.7363836,30.3698082 37.0762192,29.7087671 L40.9144658,18.1528219 C41.1792329,18.0826849 41.4457534,18.0239452 41.7149041,17.9950137 C43.8014795,17.7828493 45.8906849,17.5426301 47.9825205,17.4216438 C49.2633973,17.3497534 50.5512877,17.3085479 51.8540822,17.4006027 L61.3506301,28.1043836 C61.0236164,29.1371507 60.7044932,30.1725479 60.324,31.1833973 L60.324,31.1833973 L60.324,31.1833973 Z M63.5099726,21.4904658 C66.129589,24.1118356 68.1583014,27.1031781 69.5926027,30.2987945 C67.818137,29.0775342 65.9209315,28.0728219 63.926411,27.2539726 C63.6160548,27.1259726 63.2978082,27.0128767 62.9743014,26.9015342 L53.6267945,16.3660822 C53.6916712,15.9110685 53.725863,15.4551781 53.7398904,14.9957808 C57.2958356,16.4432329 60.6290959,18.6104658 63.5099726,21.4904658 L63.5099726,21.4904658 L63.5099726,21.4904658 Z M32.9863562,14.4425753 C33.0231781,14.4697534 33.0407123,14.4925479 33.0617534,14.4986849 C35.1983014,15.2368767 37.1419726,16.324 38.9743014,17.6136438 L35.3885479,28.4121096 C35.370137,28.4173699 35.3526027,28.4226301 35.3350685,28.4305205 C34.6012603,28.733863 33.8534247,29.0056438 33.1310137,29.334411 C30.1545753,30.6871781 27.2526575,32.1854795 24.5190685,33.981863 L17.4431233,29.7955616 C17.4536438,29.5746301 17.4913425,29.3501918 17.5667397,29.1503014 C18.0419178,27.8843288 18.5092055,26.6113425 19.0466301,25.3707945 C19.4604384,24.4151781 19.9321096,23.492 20.4467397,22.589863 C20.7833973,22.218137 21.1323288,21.8499178 21.4917808,21.4904658 C24.8522192,18.1309041 28.823726,15.7453699 33.0521096,14.3347397 C33.0301918,14.3689315 33.0073973,14.4048767 32.9863562,14.4425753 L32.9863562,14.4425753 L32.9863562,14.4425753 Z" id="Shape" fill="#FFFFFF"></path>
                            </g>
                        </g>
                    </g>
                </g>
            </g>
        </g>
    </g>
</svg>