<?xml version="1.0" encoding="UTF-8" standalone="no"?>
<svg width="64px" height="62px" viewBox="0 0 64 62" version="1.1" xmlns="http://www.w3.org/2000/svg" xmlns:xlink="http://www.w3.org/1999/xlink" xmlns:sketch="http://www.bohemiancoding.com/sketch/ns">
    <!-- Generator: Sketch 3.3.3 (12081) - http://www.bohemiancoding.com/sketch -->
    <title>Slice 1</title>
    <desc>Created with Sketch.</desc>
    <defs></defs>
    <g id="Page-1" stroke="none" stroke-width="1" fill="none" fill-rule="evenodd" sketch:type="MSPage">
        <g id="household_off" sketch:type="MSLayerGroup">
            <g id="Page-1" sketch:type="MSShapeGroup">
                <ellipse id="Oval-1" fill="#313131" cx="31.5441176" cy="30.6428571" rx="31.5441176" ry="30.6428571"></ellipse>
                <g id="Group" transform="translate(10.558824, 9.400000)">
                    <rect id="Rectangle-path" fill="#FFFFFF" x="31.5" y="6.57142857" width="5.73529412" height="10.0283857"></rect>
                    <path d="M21.9411765,5.51508571 L4.73529412,22.1714286 L4.73529412,25.5365714 L4.73529412,35.5205714 L4.73529412,38.8857143 L6.64705882,38.8857143 L21.9411765,38.8857143 L37.2352941,38.8857143 L39.1470588,38.8857143 L39.1470588,35.5205714 L39.1470588,25.5365714 L39.1470588,22.1714286 L21.9411765,5.51508571 L21.9411765,5.51508571 Z" id="Shape" fill="#FFFFFF"></path>
                    <path d="M21.9411765,4.51508571 L4.73529412,21.2413001 L4.73529412,24.812065 L4.73529412,25 L21.9411765,8.08585059 L39.1470588,25 L39.1470588,24.812065 L39.1470588,21.2413001 L21.9411765,4.51508571 L21.9411765,4.51508571 Z" id="Shape" fill="#3F3F3F"></path>
                    <g transform="translate(0.000000, 1.000000)">
                        <path d="M21.9411765,0.742857143 L0.31147059,21.7285714 L3.01566176,24.3285714 L21.9411765,5.94285714 L40.8657353,24.3285714 L43.5708824,21.7285714 L21.9411765,0.742857143 L21.9411765,0.742857143 Z" id="Shape" fill="#FFFFFF"></path>
                        <path d="M25.7647059,17.4571429 C25.7647059,19.5084862 24.0528535,21.1714286 21.9411765,21.1714286 C19.8294995,21.1714286 18.1176471,19.5084862 18.1176471,17.4571429 C18.1176471,15.4057995 19.8294995,13.7428571 21.9411765,13.7428571 C24.0528535,13.7428571 25.7647059,15.4057995 25.7647059,17.4571429 L25.7647059,17.4571429 L25.7647059,17.4571429 Z" id="Shape" fill="#FFFFFF"></path>
                        <rect id="Rectangle-path" fill="#313131" x="18.1176471" y="26.8999992" width="7.64705882" height="11.1428571"></rect>
                        <path d="M21.9411765,13.7428571 C19.8286765,13.7428571 18.1176471,15.4142857 18.1176471,17.4571429 C18.1176471,17.6428571 18.1577941,18.0142857 18.2361765,18.3857143 C18.6605882,16.7142857 20.1594118,15.6 21.9411765,15.6 C23.7229412,15.6 25.2217647,16.7142857 25.6461765,18.3857143 C25.7245588,18.0142857 25.7647059,17.6428571 25.7647059,17.4571429 C25.7647059,15.4142857 24.0536765,13.7428571 21.9411765,13.7428571 L21.9411765,13.7428571 L21.9411765,13.7428571 Z" id="Shape" fill="#FFFFFF"></path>
                        <path d="M24.8088235,32.3142857 C24.8088235,32.8271216 24.3808605,33.2428571 23.8529412,33.2428571 C23.3250219,33.2428571 22.8970588,32.8271216 22.8970588,32.3142857 C22.8970588,31.8014498 23.3250219,31.3857143 23.8529412,31.3857143 C24.3808605,31.3857143 24.8088235,31.8014498 24.8088235,32.3142857 L24.8088235,32.3142857 L24.8088235,32.3142857 Z" id="Shape" fill="#FFFFFF"></path>
                        <rect id="Rectangle-path" fill="#FFFFFF" x="18.1176471" y="24.8857143" width="7.64705882" height="1.85714286"></rect>
                    </g>
                </g>
            </g>
        </g>
    </g>
</svg>