<?xml version="1.0" encoding="UTF-8" standalone="no"?>
<svg width="33px" height="33px" viewBox="0 0 33 33" version="1.1" xmlns="http://www.w3.org/2000/svg" xmlns:xlink="http://www.w3.org/1999/xlink" xmlns:sketch="http://www.bohemiancoding.com/sketch/ns">
    <!-- Generator: Sketch 3.3.3 (12081) - http://www.bohemiancoding.com/sketch -->
    <title>Slice 1</title>
    <desc>Created with Sketch.</desc>
    <defs></defs>
    <g id="Page-1" stroke="none" stroke-width="1" fill="none" fill-rule="evenodd" sketch:type="MSPage">
        <circle id="Oval-1" fill="#4D94E7" sketch:type="MSShapeGroup" cx="16.5" cy="16.5" r="16.5"></circle>
        <g id="Group" sketch:type="MSLayerGroup" transform="translate(5.000000, 5.600000)">
            <rect id="Rectangle-path" fill="#C0392B" sketch:type="MSShapeGroup" x="17" y="3" width="3" height="5.3999"></rect>
            <path d="M12,2.4312 L3,11.4 L3,13.212 L3,18.588 L3,20.4 L4,20.4 L12,20.4 L20,20.4 L21,20.4 L21,18.588 L21,13.212 L21,11.4 L12,2.4312 L12,2.4312 Z" id="Shape" fill="#BDC3C7" sketch:type="MSShapeGroup"></path>
            <path d="M12,3 L3,11.9 L3,13.8 L3,13.9 L12,4.9 L21,13.9 L21,13.8 L21,11.9 L12,3 L12,3 Z" id="Shape" fill="#95A5A6" sketch:type="MSShapeGroup"></path>
            <g sketch:type="MSShapeGroup">
                <path d="M12,0.4 L0.686,11.7 L2.1005,13.1 L12,3.2 L21.899,13.1 L23.314,11.7 L12,0.4 L12,0.4 Z" id="Shape" fill="#E74C3C"></path>
                <path d="M14,9.4 C14,10.5045695 13.1045695,11.4 12,11.4 C10.8954305,11.4 10,10.5045695 10,9.4 C10,8.2954305 10.8954305,7.4 12,7.4 C13.1045695,7.4 14,8.2954305 14,9.4 L14,9.4 Z" id="Shape" fill="#3498DB"></path>
                <rect id="Rectangle-path" fill="#E67E22" x="10" y="14.4" width="4" height="6"></rect>
                <path d="M13.5,17.9 C13.5,18.1761424 13.2761424,18.4 13,18.4 C12.7238576,18.4 12.5,18.1761424 12.5,17.9 C12.5,17.6238576 12.7238576,17.4 13,17.4 C13.2761424,17.4 13.5,17.6238576 13.5,17.9 L13.5,17.9 Z" id="Shape" fill="#D35400"></path>
                <path d="M12,7.4 C10.895,7.4 10,8.3 10,9.4 C10,9.5 10.021,9.7 10.062,9.9 C10.284,9 11.068,8.4 12,8.4 C12.932,8.4 13.716,9 13.938,9.9 C13.979,9.7 14,9.5 14,9.4 C14,8.3 13.105,7.4 12,7.4 L12,7.4 Z" id="Shape" fill="#2980B9"></path>
                <path d="M13.5,17.4 C13.5,17.6761424 13.2761424,17.9 13,17.9 C12.7238576,17.9 12.5,17.6761424 12.5,17.4 C12.5,17.1238576 12.7238576,16.9 13,16.9 C13.2761424,16.9 13.5,17.1238576 13.5,17.4 L13.5,17.4 Z" id="Shape" fill="#F1C40F"></path>
                <rect id="Rectangle-path" fill="#D35400" x="10" y="13.4" width="4" height="1"></rect>
            </g>
        </g>
    </g>
</svg>