<?xml version="1.0" encoding="UTF-8" standalone="no"?>
<svg width="64px" height="64px" viewBox="0 0 64 64" version="1.1" xmlns="http://www.w3.org/2000/svg" xmlns:xlink="http://www.w3.org/1999/xlink" xmlns:sketch="http://www.bohemiancoding.com/sketch/ns">
    <!-- Generator: Sketch 3.3.3 (12081) - http://www.bohemiancoding.com/sketch -->
    <title>Slice 1</title>
    <desc>Created with Sketch.</desc>
    <defs></defs>
    <g id="Page-1" stroke="none" stroke-width="1" fill="none" fill-rule="evenodd" sketch:type="MSPage">
        <g id="household_on1" sketch:type="MSLayerGroup">
            <g id="Page-1" sketch:type="MSShapeGroup">
                <path d="M32.4558824,64 C49.8772175,64 64,50.2807256 64,33.3571429 C64,16.4335602 49.8772175,2.71428571 32.4558824,2.71428571 C15.0345472,2.71428571 0.911764706,16.4335602 0.911764706,33.3571429 C0.911764706,50.2807256 15.0345472,64 32.4558824,64 L32.4558824,64 L32.4558824,64 Z" id="Oval-Copy" fill="#31629B"></path>
                <g id="household_on">
                    <g id="Page-1">
                        <ellipse id="Oval-1" fill="#4D94E7" cx="31.5441176" cy="30.6428571" rx="31.5441176" ry="30.6428571"></ellipse>
                        <g id="Group" transform="translate(9.558824, 10.400000)">
                            <rect id="Rectangle-path" fill="#C0392B" x="32.5" y="5.57142857" width="5.73529412" height="10.0283857"></rect>
                            <path d="M22.9411765,4.51508571 L5.73529412,21.1714286 L5.73529412,24.5365714 L5.73529412,34.5205714 L5.73529412,37.8857143 L7.64705882,37.8857143 L22.9411765,37.8857143 L38.2352941,37.8857143 L40.1470588,37.8857143 L40.1470588,34.5205714 L40.1470588,24.5365714 L40.1470588,21.1714286 L22.9411765,4.51508571 L22.9411765,4.51508571 Z" id="Shape" fill="#BDC3C7"></path>
                            <path d="M22.9411765,5.57142857 L5.73529412,22.1 L5.73529412,25.6285714 L5.73529412,25.8142857 L22.9411765,9.1 L40.1470588,25.8142857 L40.1470588,25.6285714 L40.1470588,22.1 L22.9411765,5.57142857 L22.9411765,5.57142857 Z" id="Shape" fill="#95A5A6"></path>
                            <g>
                                <path d="M22.9411765,0.742857143 L1.31147059,21.7285714 L4.01566176,24.3285714 L22.9411765,5.94285714 L41.8657353,24.3285714 L44.5708824,21.7285714 L22.9411765,0.742857143 L22.9411765,0.742857143 Z" id="Shape" fill="#E74C3C"></path>
                                <path d="M26.7647059,17.4571429 C26.7647059,19.5084862 25.0528535,21.1714286 22.9411765,21.1714286 C20.8294995,21.1714286 19.1176471,19.5084862 19.1176471,17.4571429 C19.1176471,15.4057995 20.8294995,13.7428571 22.9411765,13.7428571 C25.0528535,13.7428571 26.7647059,15.4057995 26.7647059,17.4571429 L26.7647059,17.4571429 L26.7647059,17.4571429 Z" id="Shape" fill="#3498DB"></path>
                                <rect id="Rectangle-path" fill="#E67E22" x="19.1176471" y="26.7428571" width="7.64705882" height="11.1428571"></rect>
                                <path d="M25.8088235,33.2428571 C25.8088235,33.755693 25.3808605,34.1714286 24.8529412,34.1714286 C24.3250219,34.1714286 23.8970588,33.755693 23.8970588,33.2428571 C23.8970588,32.7300213 24.3250219,32.3142857 24.8529412,32.3142857 C25.3808605,32.3142857 25.8088235,32.7300213 25.8088235,33.2428571 L25.8088235,33.2428571 L25.8088235,33.2428571 Z" id="Shape" fill="#D35400"></path>
                                <path d="M22.9411765,13.7428571 C20.8286765,13.7428571 19.1176471,15.4142857 19.1176471,17.4571429 C19.1176471,17.6428571 19.1577941,18.0142857 19.2361765,18.3857143 C19.6605882,16.7142857 21.1594118,15.6 22.9411765,15.6 C24.7229412,15.6 26.2217647,16.7142857 26.6461765,18.3857143 C26.7245588,18.0142857 26.7647059,17.6428571 26.7647059,17.4571429 C26.7647059,15.4142857 25.0536765,13.7428571 22.9411765,13.7428571 L22.9411765,13.7428571 L22.9411765,13.7428571 Z" id="Shape" fill="#2980B9"></path>
                                <path d="M25.8088235,32.3142857 C25.8088235,32.8271216 25.3808605,33.2428571 24.8529412,33.2428571 C24.3250219,33.2428571 23.8970588,32.8271216 23.8970588,32.3142857 C23.8970588,31.8014498 24.3250219,31.3857143 24.8529412,31.3857143 C25.3808605,31.3857143 25.8088235,31.8014498 25.8088235,32.3142857 L25.8088235,32.3142857 L25.8088235,32.3142857 Z" id="Shape" fill="#F1C40F"></path>
                                <rect id="Rectangle-path" fill="#D35400" x="19.1176471" y="24.8857143" width="7.64705882" height="1.85714286"></rect>
                            </g>
                        </g>
                    </g>
                </g>
            </g>
        </g>
    </g>
</svg>