<?xml version="1.0" encoding="UTF-8" standalone="no"?>
<svg width="64px" height="64px" viewBox="0 0 64 64" version="1.1" xmlns="http://www.w3.org/2000/svg" xmlns:xlink="http://www.w3.org/1999/xlink" xmlns:sketch="http://www.bohemiancoding.com/sketch/ns">
    <!-- Generator: Sketch 3.3.3 (12081) - http://www.bohemiancoding.com/sketch -->
    <title>Slice 1</title>
    <desc>Created with Sketch.</desc>
    <defs></defs>
    <g id="Page-1" stroke="none" stroke-width="1" fill="none" fill-rule="evenodd" sketch:type="MSPage">
        <g id="mobility-on" sketch:type="MSLayerGroup">
            <path d="M32,64 C49.673112,64 64,49.673112 64,32 C64,14.326888 49.673112,0 32,0 C14.326888,0 0,14.326888 0,32 C0,49.673112 14.326888,64 32,64 Z" id="Oval" fill="#3467A2" sketch:type="MSShapeGroup"></path>
            <g id="Group" transform="translate(10.000000, 15.000000)" sketch:type="MSShapeGroup">
                <path d="M10,35 C10,36.105 9.105,37 8,37 L6,37 C4.895,37 4,36.105 4,35 L4,24 C4,22.895 4.895,22 6,22 L8,22 C9.105,22 10,22.895 10,24 L10,35 L10,35 Z" id="Shape" opacity="0.2" fill="#231F20"></path>
                <path d="M40,35 C40,36.105 39.105,37 38,37 L36,37 C34.895,37 34,36.105 34,35 L34,24 C34,22.895 34.895,22 36,22 L38,22 C39.105,22 40,22.895 40,24 L40,35 L40,35 Z" id="Shape" opacity="0.2" fill="#231F20"></path>
                <path d="M10,33 C10,34.105 9.105,35 8,35 L6,35 C4.895,35 4,34.105 4,33 L4,22 C4,20.895 4.895,20 6,20 L8,20 C9.105,20 10,20.895 10,22 L10,33 L10,33 Z" id="Shape" fill="#4F5D73"></path>
                <path d="M40,33 C40,34.105 39.105,35 38,35 L36,35 C34.895,35 34,34.105 34,33 L34,22 C34,20.895 34.895,20 36,20 L38,20 C39.105,20 40,20.895 40,22 L40,33 L40,33 Z" id="Shape" fill="#4F5D73"></path>
                <g transform="translate(4.000000, 0.000000)" id="Shape" fill="#231F20">
                    <path d="M30,22 L6,22 C2.691,22 0,19.309 0,16 L0.039,15.608 L2.069,5.479 C2.995,2.048 5.212,0 8,0 L28,0 C30.788,0 33.005,2.048 33.931,5.479 L33.961,5.608 L36,16 C36,19.309 33.309,22 30,22 L30,22 Z M4.007,16.165 C4.091,17.19 4.953,18 6,18 L30,18 C31.047,18 31.909,17.19 31.993,16.165 L30.053,6.461 C29.833,5.674 29.222,4 28,4 L8,4 C6.778,4 6.167,5.674 5.947,6.461 L4.007,16.165 L4.007,16.165 Z"></path>
                </g>
                <path d="M38,14 C38,16.209 36.209,18 34,18 L10,18 C7.791,18 6,16.209 6,14 L8,4 C8.54,2 9.791,0 12,0 L32,0 C34.209,0 35.46,2 36,4 L38,14 L38,14 Z" id="Shape" stroke="#C75C5C" stroke-width="4"></path>
                <g transform="translate(0.000000, 16.000000)" id="Shape" fill="#231F20">
                    <path d="M42,11 C42,13.209 40.209,15 38,15 L6,15 C3.791,15 2,13.209 2,11 L2,6 C2,3.791 3.791,2 6,2 L38,2 C40.209,2 42,3.791 42,6 L42,11 L42,11 Z"></path>
                    <path d="M38,17 L6,17 C2.691,17 0,14.309 0,11 L0,6 C0,2.691 2.691,0 6,0 L38,0 C41.309,0 44,2.691 44,6 L44,11 C44,14.309 41.309,17 38,17 L38,17 Z M6,4 C4.897,4 4,4.897 4,6 L4,11 C4,12.103 4.897,13 6,13 L38,13 C39.103,13 40,12.103 40,11 L40,6 C40,4.897 39.103,4 38,4 L6,4 L6,4 Z"></path>
                </g>
                <path d="M42,25 C42,27.209 40.209,29 38,29 L6,29 C3.791,29 2,27.209 2,25 L2,20 C2,17.791 3.791,16 6,16 L38,16 C40.209,16 42,17.791 42,20 L42,25 L42,25 Z" id="Shape" stroke="#C75C5C" stroke-width="4" fill="#C65A5A"></path>
                <path d="M11,23 C11,25.209 9.209,27 7,27 L7,27 C4.791,27 3,25.209 3,23 L3,23 C3,20.791 4.791,19 7,19 L7,19 C9.209,19 11,20.791 11,23 L11,23 L11,23 Z" id="Shape" stroke="#C75C5C" stroke-width="2" fill="#F5CF87"></path>
                <path d="M41,23 C41,25.209 39.209,27 37,27 L37,27 C34.791,27 33,25.209 33,23 L33,23 C33,20.791 34.791,19 37,19 L37,19 C39.209,19 41,20.791 41,23 L41,23 L41,23 Z" id="Shape" stroke="#C75C5C" stroke-width="2" fill="#F5CF87"></path>
            </g>
        </g>
    </g>
</svg>