<?xml version="1.0" encoding="UTF-8" standalone="no"?>
<svg width="65px" height="65px" viewBox="0 0 65 65" version="1.1" xmlns="http://www.w3.org/2000/svg" xmlns:xlink="http://www.w3.org/1999/xlink" xmlns:sketch="http://www.bohemiancoding.com/sketch/ns">
    <!-- Generator: Sketch 3.3.3 (12081) - http://www.bohemiancoding.com/sketch -->
    <title>Slice 1</title>
    <desc>Created with Sketch.</desc>
    <defs></defs>
    <g id="Page-1" stroke="none" stroke-width="1" fill="none" fill-rule="evenodd" sketch:type="MSPage">
        <g id="mobility_on1" sketch:type="MSLayerGroup">
            <g id="Page-1" sketch:type="MSShapeGroup">
                <g id="mobility_on">
                    <g id="Page-1">
                        <g id="mobility-on">
                            <path d="M33,65 C50.673112,65 65,51.1007803 65,33.9552239 C65,16.8096675 50.673112,2.91044776 33,2.91044776 C15.326888,2.91044776 1,16.8096675 1,33.9552239 C1,51.1007803 15.326888,65 33,65 L33,65 L33,65 Z" id="Oval-Copy" fill="#31629B"></path>
                            <path d="M32,62.0895522 C49.673112,62.0895522 64,48.1903325 64,31.0447761 C64,13.8992197 49.673112,0 32,0 C14.326888,0 0,13.8992197 0,31.0447761 C0,48.1903325 14.326888,62.0895522 32,62.0895522 L32,62.0895522 L32,62.0895522 Z" id="Oval" fill="#4C94E8"></path>
                            <g id="Group" transform="translate(10.000000, 14.552239)">
                                <path d="M10,33.9552239 C10,35.0272388 9.105,35.8955224 8,35.8955224 L6,35.8955224 C4.895,35.8955224 4,35.0272388 4,33.9552239 L4,23.2835821 C4,22.2115672 4.895,21.3432836 6,21.3432836 L8,21.3432836 C9.105,21.3432836 10,22.2115672 10,23.2835821 L10,33.9552239 L10,33.9552239 Z" id="Shape" opacity="0.2" fill="#231F20"></path>
                                <path d="M40,33.9552239 C40,35.0272388 39.105,35.8955224 38,35.8955224 L36,35.8955224 C34.895,35.8955224 34,35.0272388 34,33.9552239 L34,23.2835821 C34,22.2115672 34.895,21.3432836 36,21.3432836 L38,21.3432836 C39.105,21.3432836 40,22.2115672 40,23.2835821 L40,33.9552239 L40,33.9552239 Z" id="Shape" opacity="0.2" fill="#231F20"></path>
                                <path d="M10,32.0149254 C10,33.0869403 9.105,33.9552239 8,33.9552239 L6,33.9552239 C4.895,33.9552239 4,33.0869403 4,32.0149254 L4,21.3432836 C4,20.2712687 4.895,19.4029851 6,19.4029851 L8,19.4029851 C9.105,19.4029851 10,20.2712687 10,21.3432836 L10,32.0149254 L10,32.0149254 Z" id="Shape" fill="#4F5D73"></path>
                                <path d="M40,32.0149254 C40,33.0869403 39.105,33.9552239 38,33.9552239 L36,33.9552239 C34.895,33.9552239 34,33.0869403 34,32.0149254 L34,21.3432836 C34,20.2712687 34.895,19.4029851 36,19.4029851 L38,19.4029851 C39.105,19.4029851 40,20.2712687 40,21.3432836 L40,32.0149254 L40,32.0149254 Z" id="Shape" fill="#4F5D73"></path>
                                <g id="Shape" transform="translate(4.000000, 0.000000)" fill="#231F20">
                                    <path d="M30,21.3432836 L6,21.3432836 C2.691,21.3432836 0,18.7326119 0,15.5223881 L0.039,15.1420896 L2.069,5.31544776 C2.995,1.98686567 5.212,0 8,0 L28,0 C30.788,0 33.005,1.98686567 33.931,5.31544776 L33.961,5.44059701 L36,15.5223881 C36,18.7326119 33.309,21.3432836 30,21.3432836 L30,21.3432836 L30,21.3432836 Z M4.007,15.6824627 C4.091,16.6768657 4.953,17.4626866 6,17.4626866 L30,17.4626866 C31.047,17.4626866 31.909,16.6768657 31.993,15.6824627 L30.053,6.26813433 C29.833,5.50462687 29.222,3.88059701 28,3.88059701 L8,3.88059701 C6.778,3.88059701 6.167,5.50462687 5.947,6.26813433 L4.007,15.6824627 L4.007,15.6824627 Z"></path>
                                </g>
                                <path d="M38,13.5820896 C38,15.7251493 36.209,17.4626866 34,17.4626866 L10,17.4626866 C7.791,17.4626866 6,15.7251493 6,13.5820896 L8,3.88059701 C8.54,1.94029851 9.791,0 12,0 L32,0 C34.209,0 35.46,1.94029851 36,3.88059701 L38,13.5820896 L38,13.5820896 Z" id="Shape" stroke="#C75C5C" stroke-width="4"></path>
                                <g id="Shape" transform="translate(0.000000, 15.522388)" fill="#231F20">
                                    <path d="M42,10.6716418 C42,12.8147015 40.209,14.5522388 38,14.5522388 L6,14.5522388 C3.791,14.5522388 2,12.8147015 2,10.6716418 L2,5.82089552 C2,3.67783582 3.791,1.94029851 6,1.94029851 L38,1.94029851 C40.209,1.94029851 42,3.67783582 42,5.82089552 L42,10.6716418 L42,10.6716418 Z"></path>
                                    <path d="M38,16.4925373 L6,16.4925373 C2.691,16.4925373 0,13.8818657 0,10.6716418 L0,5.82089552 C0,2.61067164 2.691,0 6,0 L38,0 C41.309,0 44,2.61067164 44,5.82089552 L44,10.6716418 C44,13.8818657 41.309,16.4925373 38,16.4925373 L38,16.4925373 L38,16.4925373 Z M6,3.88059701 C4.897,3.88059701 4,4.7508209 4,5.82089552 L4,10.6716418 C4,11.7417164 4.897,12.6119403 6,12.6119403 L38,12.6119403 C39.103,12.6119403 40,11.7417164 40,10.6716418 L40,5.82089552 C40,4.7508209 39.103,3.88059701 38,3.88059701 L6,3.88059701 L6,3.88059701 Z"></path>
                                </g>
                                <path d="M42,24.2537313 C42,26.396791 40.209,28.1343284 38,28.1343284 L6,28.1343284 C3.791,28.1343284 2,26.396791 2,24.2537313 L2,19.4029851 C2,17.2599254 3.791,15.5223881 6,15.5223881 L38,15.5223881 C40.209,15.5223881 42,17.2599254 42,19.4029851 L42,24.2537313 L42,24.2537313 Z" id="Shape" stroke="#C75C5C" stroke-width="4" fill="#C65A5A"></path>
                                <path d="M11,22.3134328 C11,24.4564925 9.209,26.1940299 7,26.1940299 L7,26.1940299 C4.791,26.1940299 3,24.4564925 3,22.3134328 L3,22.3134328 C3,20.1703731 4.791,18.4328358 7,18.4328358 L7,18.4328358 C9.209,18.4328358 11,20.1703731 11,22.3134328 L11,22.3134328 L11,22.3134328 Z" id="Shape" stroke="#C75C5C" stroke-width="2" fill="#F5CF87"></path>
                                <path d="M41,22.3134328 C41,24.4564925 39.209,26.1940299 37,26.1940299 L37,26.1940299 C34.791,26.1940299 33,24.4564925 33,22.3134328 L33,22.3134328 C33,20.1703731 34.791,18.4328358 37,18.4328358 L37,18.4328358 C39.209,18.4328358 41,20.1703731 41,22.3134328 L41,22.3134328 L41,22.3134328 Z" id="Shape" stroke="#C75C5C" stroke-width="2" fill="#F5CF87"></path>
                            </g>
                        </g>
                    </g>
                </g>
            </g>
        </g>
    </g>
</svg>