<?xml version="1.0" encoding="UTF-8" standalone="no"?>
<svg width="20px" height="23px" viewBox="0 0 20 23" version="1.1" xmlns="http://www.w3.org/2000/svg" xmlns:xlink="http://www.w3.org/1999/xlink" xmlns:sketch="http://www.bohemiancoding.com/sketch/ns">
    <!-- Generator: Sketch 3.3.3 (12081) - http://www.bohemiancoding.com/sketch -->
    <title>Slice 1</title>
    <desc>Created with Sketch.</desc>
    <defs></defs>
    <g id="Page-1" stroke="none" stroke-width="1" fill="none" fill-rule="evenodd" sketch:type="MSPage">
        <g id="Group" sketch:type="MSLayerGroup" transform="translate(0.000000, 0.600000)">
            <path d="M10,21.4 C4.4772,21.4 0,16.923 0,11.4 C0,5.8772 4.4772,1.4 10,1.4 C15.523,1.4 20,5.8772 20,11.4 C20,16.923 15.523,21.4 10,21.4 Z" id="Shape" fill="#A33836" sketch:type="MSShapeGroup"></path>
            <path d="M20,10.4 C20,15.923 15.523,20.4 10,20.4 C4.4772,20.4 0,15.923 0,10.4 C0,4.8772 4.4772,0.4 10,0.4 C15.523,0.4 20,4.8772 20,10.4 L20,10.4 Z" id="Shape" fill="#EF5350" sketch:type="MSShapeGroup"></path>
            <path d="M9,12.4 L10.9999999,12.4 L16,12.4 L16,10.4 L11,10.4 L8.99999986,10.4 L4.0001,10.4 L4.0001,12.4 L9,12.4 Z" id="Shape" fill="#A33836" sketch:type="MSShapeGroup"></path>
            <path d="M9,11.4 L11,11.4 L16,11.4 L16,9.4 L11,9.4 L9,9.4 L4,9.4 L4,11.4 L9,11.4 Z" id="Shape" fill="#ECF0F1" sketch:type="MSShapeGroup"></path>
        </g>
    </g>
</svg>