<?xml version="1.0" encoding="UTF-8" standalone="no"?>
<svg width="20px" height="22px" viewBox="0 0 20 22" version="1.1" xmlns="http://www.w3.org/2000/svg" xmlns:xlink="http://www.w3.org/1999/xlink" xmlns:sketch="http://www.bohemiancoding.com/sketch/ns">
    <!-- Generator: Sketch 3.3.3 (12081) - http://www.bohemiancoding.com/sketch -->
    <title>Slice 1</title>
    <desc>Created with Sketch.</desc>
    <defs></defs>
    <g id="Page-1" stroke="none" stroke-width="1" fill="none" fill-rule="evenodd" sketch:type="MSPage">
        <g id="share" sketch:type="MSLayerGroup">
            <g id="Page-1" sketch:type="MSShapeGroup">
                <g id="add-copy">
                    <g id="Page-1">
                        <g id="Group" transform="translate(0.000000, 0.573913)">
                            <path d="M20,10.9043478 C20,16.1872174 15.523,20.4695652 10,20.4695652 C4.4772,20.4695652 0,16.1872174 0,10.9043478 C0,5.62166957 4.4772,1.33913043 10,1.33913043 C15.523,1.33913043 20,5.62166957 20,10.9043478 L20,10.9043478 L20,10.9043478 Z" id="Shape" fill="#C9871B"></path>
                            <path d="M20,9.94782609 C20,15.2306957 15.523,19.5130435 10,19.5130435 C4.4772,19.5130435 0,15.2306957 0,9.94782609 C0,4.66514783 4.4772,0.382608696 10,0.382608696 C15.523,0.382608696 20,4.66514783 20,9.94782609 L20,9.94782609 L20,9.94782609 Z" id="Shape" fill="#F6A623"></path>
                        </g>
                    </g>
                </g>
                <g id="Group" transform="translate(3.000000, 3.000000)" fill="#FFFFFF">
                    <rect id="Rectangle-1" transform="translate(6.571604, 5.060021) rotate(-30.000000) translate(-6.571604, -5.060021) " x="2.62864147" y="4.45002594" width="7.8859244" height="1.21998962"></rect>
                    <path d="M2.62864147,9.32998444 L10.5145659,9.32998444 L10.5145659,10.5499741 L7.84948066,10.5499741 L2.62864147,10.5499741 L2.62864147,9.32998444 Z" id="Rectangle-1-Copy" transform="translate(6.571604, 9.939979) rotate(-150.000000) translate(-6.571604, -9.939979) "></path>
                    <circle id="Oval-1" cx="11.2002451" cy="2.79005707" r="2"></circle>
                    <circle id="Oval-1-Copy" cx="2" cy="7.67001556" r="2"></circle>
                    <circle id="Oval-1-Copy-2" cx="11.2002451" cy="12.5499741" r="2"></circle>
                </g>
            </g>
        </g>
    </g>
</svg>