<?xml version="1.0" encoding="UTF-8" standalone="no"?>
<svg width="65px" height="66px" viewBox="0 0 65 66" version="1.1" xmlns="http://www.w3.org/2000/svg" xmlns:xlink="http://www.w3.org/1999/xlink" xmlns:sketch="http://www.bohemiancoding.com/sketch/ns">
    <!-- Generator: Sketch 3.3.3 (12081) - http://www.bohemiancoding.com/sketch -->
    <title>Slice 1</title>
    <desc>Created with Sketch.</desc>
    <defs></defs>
    <g id="Page-1" stroke="none" stroke-width="1" fill="none" fill-rule="evenodd" sketch:type="MSPage">
        <g id="sonstiges_on1" sketch:type="MSLayerGroup">
            <g id="Page-1" sketch:type="MSShapeGroup">
                <path d="M32.9196429,65.7192982 C50.5483749,65.7192982 64.8392857,51.6791051 64.8392857,34.3596491 C64.8392857,17.0401931 50.5483749,3 32.9196429,3 C15.2909109,3 1,17.0401931 1,34.3596491 C1,51.6791051 15.2909109,65.7192982 32.9196429,65.7192982 L32.9196429,65.7192982 L32.9196429,65.7192982 Z" id="Oval-Copy" fill="#31629B"></path>
                <g id="sonstiges_on">
                    <g id="Page-1">
                        <g id="sonstiges_on">
                            <g id="Page-1">
                                <path d="M63.8392857,31.3596491 C63.8392857,14.0401932 49.5483748,0 31.9196429,0 C14.2909109,0 0,14.0401932 0,31.3596491 C0,48.6791051 14.2909109,62.7192982 31.9196429,62.7192982 C49.5483748,62.7192982 63.8392857,48.6791051 63.8392857,31.3596491 L63.8392857,31.3596491 L63.8392857,31.3596491 Z" id="Oval-1" fill="#4D94E7"></path>
                                <path d="M31.9196429,57.0175439 C46.3431508,57.0175439 58.0357143,45.5301131 58.0357143,31.3596491 C58.0357143,20.5735807 51.2613594,11.341989 41.6647121,7.54760209 C38.6535268,6.35701939 35.364474,5.70175439 31.9196429,5.70175439 C17.4961349,5.70175439 5.80357143,17.1891852 5.80357143,31.3596491 C5.80357143,45.5301131 17.4961349,57.0175439 31.9196429,57.0175439 L31.9196429,57.0175439 L31.9196429,57.0175439 Z" id="Oval-2" stroke="#535353" stroke-width="7" fill="#4D94E7"></path>
                                <ellipse id="Oval-3" fill="#545353" cx="20.3125" cy="31.3596491" rx="3.48214286" ry="3.42105263"></ellipse>
                                <ellipse id="Oval-3-Copy" fill="#545353" cx="32.5" cy="31.3596491" rx="3.48214286" ry="3.42105263"></ellipse>
                                <ellipse id="Oval-3-Copy-2" fill="#545353" cx="44.6875" cy="31.3596491" rx="3.48214286" ry="3.42105263"></ellipse>
                            </g>
                        </g>
                    </g>
                </g>
            </g>
        </g>
    </g>
</svg>