<?xml version="1.0" encoding="UTF-8" standalone="no"?>
<svg width="110px" height="110px" viewBox="0 0 110 110" version="1.1" xmlns="http://www.w3.org/2000/svg" xmlns:xlink="http://www.w3.org/1999/xlink" xmlns:sketch="http://www.bohemiancoding.com/sketch/ns">
    <!-- Generator: Sketch 3.3.3 (12081) - http://www.bohemiancoding.com/sketch -->
    <title>Slice 1</title>
    <desc>Created with Sketch.</desc>
    <defs></defs>
    <g id="Page-1" stroke="none" stroke-width="1" fill="none" fill-rule="evenodd" sketch:type="MSPage">
        <g id="sonstiges_on" sketch:type="MSLayerGroup">
            <g id="Page-1" sketch:type="MSShapeGroup">
                <path d="M110,55 C110,24.6243388 85.3756612,0 55,0 C24.6243388,0 0,24.6243388 0,55 C0,85.3756612 24.6243388,110 55,110 C85.3756612,110 110,85.3756612 110,55 Z" id="Oval-1" fill="#4D94E7"></path>
                <path d="M55,100 C79.8528137,100 100,79.8528137 100,55 C100,36.0828953 88.3272655,19.8921038 71.7915039,13.2373329 C66.6030001,11.149234 60.9357091,10 55,10 C30.1471863,10 10,30.1471863 10,55 C10,79.8528137 30.1471863,100 55,100 Z" id="Oval-2" stroke="#535353" stroke-width="7" fill="#4D94E7"></path>
                <circle id="Oval-3" fill="#545353" cx="35" cy="55" r="6"></circle>
                <circle id="Oval-3-Copy" fill="#545353" cx="56" cy="55" r="6"></circle>
                <circle id="Oval-3-Copy-2" fill="#545353" cx="77" cy="55" r="6"></circle>
            </g>
        </g>
    </g>
</svg>